<?xml version="1.0" encoding="utf-8"?>
<!-- Generator: Adobe Illustrator 22.0.1, SVG Export Plug-In . SVG Version: 6.00 Build 0)  -->
<svg version="1.1" xmlns="http://www.w3.org/2000/svg" xmlns:xlink="http://www.w3.org/1999/xlink" x="0px" y="0px"
	 viewBox="0 0 400 400" xml:space="preserve">
	 <linearGradient id="logo_grad" x1="0%" y1="0%" x2="100%" y2="100%">
      <stop offset="0%" stop-color=" #fca23f" />
      <stop offset="100%" stop-color="#ec6c85" />
    </linearGradient>
<path class="logo" d="M5.2,200.8c0,72.1,39.2,135,97.4,168.7L5.2,200.8z"/>
<path class="logo" d="M394.8,200.8C394.8,93.2,307.6,6,200,6C133.3,6,74.4,39.6,39.3,90.8c25.3-34.5,66-56.9,112-56.9
	c76.6,0,138.8,62.1,138.8,138.8c0,63.3-42.3,116.6-100.2,133.3c-7.8,2-13.6,9.1-13.6,17.5c0,3.2,0.8,6.2,2.3,8.8l0,0l29.1,50.3
	c2.7,6.6,9.2,11.3,16.8,11.3c1.6,0,3.2-0.2,4.7-0.6C322.9,379.3,394.8,298.4,394.8,200.8z"/>
<path class="logo" d="M70.2,144.5l28.1,49.1c18.2-4.3,36.1-11.2,53.1-21c-17,9.8-32,21.9-44.8,35.5l28.2,49.4l65.3-113H70.2z"/>
</svg>
