<?xml version="1.0" encoding="utf-8"?>
<!-- Generator: Adobe Illustrator 22.0.1, SVG Export Plug-In . SVG Version: 6.00 Build 0)  -->
<svg version="1.1" id="Layer_1" xmlns="http://www.w3.org/2000/svg" xmlns:xlink="http://www.w3.org/1999/xlink" x="0px" y="0px"
	 viewBox="0 0 630 126" style="enable-background:new 0 0 630 126;" xml:space="preserve">

<g>
	<path class="st0" d="M23.9,83.4v41H0V8.1h45.3c8.7,0,16.4,1.6,23,4.8c6.6,3.2,11.7,7.7,15.3,13.6c3.6,5.9,5.3,12.6,5.3,20.1
		c0,11.4-3.9,20.4-11.7,27c-7.8,6.6-18.6,9.9-32.4,9.9H23.9z M23.9,64h21.4c6.3,0,11.2-1.5,14.5-4.5c3.3-3,5-7.2,5-12.8
		c0-5.7-1.7-10.3-5-13.8c-3.4-3.5-8-5.3-13.9-5.4H23.9V64z"/>
	<path class="st0" d="M99.3,80.4c0-8.6,1.6-16.2,4.9-22.9c3.3-6.7,8-11.9,14.2-15.6c6.2-3.7,13.4-5.5,21.6-5.5
		c11.7,0,21.2,3.6,28.5,10.7c7.4,7.1,11.5,16.8,12.3,29.1l0.2,5.9c0,13.3-3.7,23.9-11.1,31.9c-7.4,8-17.3,12-29.8,12
		c-12.4,0-22.4-4-29.8-12c-7.4-8-11.1-18.9-11.1-32.6V80.4z M122.3,82c0,8.2,1.5,14.5,4.6,18.8c3.1,4.3,7.5,6.5,13.2,6.5
		c5.6,0,9.9-2.1,13.1-6.4c3.1-4.3,4.7-11.2,4.7-20.6c0-8.1-1.6-14.3-4.7-18.7c-3.1-4.4-7.6-6.6-13.2-6.6c-5.6,0-10,2.2-13.1,6.6
		C123.9,66,122.3,72.8,122.3,82z"/>
	<path class="st0" d="M243.8,59.6c-3.1-0.4-5.9-0.6-8.3-0.6c-8.7,0-14.4,3-17.2,8.9v56.6h-23.1V38h21.8l0.6,10.3
		c4.6-7.9,11-11.9,19.2-11.9c2.6,0,4.9,0.3,7.2,1L243.8,59.6z"/>
	<path class="st0" d="M286.5,16.7V38h14.8v16.9h-14.8V98c0,3.2,0.6,5.5,1.8,6.9c1.2,1.4,3.6,2.1,7,2.1c2.6,0,4.8-0.2,6.8-0.6v17.5
		c-4.5,1.4-9.2,2.1-14,2.1c-16.2,0-24.4-8.2-24.7-24.5V54.9h-12.6V38h12.6V16.7H286.5z"/>
	<path class="st0" d="M320.4,124.4V54.9h-12.8V38h12.8v-7.4c0-9.7,2.8-17.2,8.3-22.6c5.6-5.4,13.3-8,23.3-8c3.2,0,7.1,0.5,11.7,1.6
		l-0.2,17.9c-1.9-0.5-4.3-0.7-7-0.7c-8.7,0-13,4.1-13,12.2v7h17.2v16.9h-17.2v69.5H320.4z"/>
	<path class="st0" d="M369.1,80.4c0-8.6,1.6-16.2,4.9-22.9c3.3-6.7,8-11.9,14.2-15.6c6.2-3.7,13.4-5.5,21.6-5.5
		c11.7,0,21.2,3.6,28.5,10.7c7.4,7.1,11.5,16.8,12.3,29.1l0.2,5.9c0,13.3-3.7,23.9-11.1,31.9c-7.4,8-17.3,12-29.8,12
		c-12.4,0-22.4-4-29.8-12c-7.4-8-11.1-18.9-11.1-32.6V80.4z M392.2,82c0,8.2,1.5,14.5,4.6,18.8c3.1,4.3,7.5,6.5,13.2,6.5
		c5.6,0,9.9-2.1,13.1-6.4c3.1-4.3,4.7-11.2,4.7-20.6c0-8.1-1.6-14.3-4.7-18.7c-3.1-4.4-7.6-6.6-13.2-6.6c-5.6,0-10,2.2-13.1,6.6
		C393.7,66,392.2,72.8,392.2,82z"/>
	<path class="st0" d="M489.5,124.4h-23.1V1.7h23.1V124.4z"/>
	<path class="st0" d="M508.3,15.6c0-3.5,1.2-6.3,3.5-8.5c2.3-2.2,5.5-3.4,9.5-3.4c3.9,0,7.1,1.1,9.4,3.4c2.3,2.2,3.5,5.1,3.5,8.5
		c0,3.5-1.2,6.4-3.6,8.6c-2.4,2.2-5.5,3.4-9.4,3.4c-3.9,0-7-1.1-9.4-3.4C509.5,22,508.3,19.1,508.3,15.6z M532.8,124.4h-23.1V38
		h23.1V124.4z"/>
	<path class="st0" d="M548.2,80.4c0-8.6,1.6-16.2,4.9-22.9c3.3-6.7,8-11.9,14.2-15.6c6.2-3.7,13.4-5.5,21.6-5.5
		c11.7,0,21.2,3.6,28.5,10.7c7.4,7.1,11.5,16.8,12.3,29.1l0.2,5.9c0,13.3-3.7,23.9-11.1,31.9c-7.4,8-17.3,12-29.8,12
		c-12.4,0-22.4-4-29.8-12c-7.4-8-11.1-18.9-11.1-32.6V80.4z M571.3,82c0,8.2,1.5,14.5,4.6,18.8c3.1,4.3,7.5,6.5,13.2,6.5
		c5.6,0,9.9-2.1,13.1-6.4c3.1-4.3,4.7-11.2,4.7-20.6c0-8.1-1.6-14.3-4.7-18.7c-3.1-4.4-7.6-6.6-13.2-6.6c-5.6,0-10,2.2-13.1,6.6
		C572.8,66,571.3,72.8,571.3,82z"/>
</g>
</svg>
