<?xml version="1.0" encoding="utf-8"?>
<!-- Generator: Adobe Illustrator 22.0.1, SVG Export Plug-In . SVG Version: 6.00 Build 0)  -->
<svg version="1.1" id="Layer_1" xmlns="http://www.w3.org/2000/svg" xmlns:xlink="http://www.w3.org/1999/xlink" x="0px" y="0px"
	 viewBox="0 0 500 500" style="enable-background:new 0 0 500 500;" xml:space="preserve">

<g id="com">
	<path id="com_bg" class="st0" d="M307.4,245H86.2c-4.6,0-8.4-3.7-8.4-8.4V73.7c0-4.6,3.7-8.4,8.4-8.4h221.2
		c4.6,0,8.4,3.7,8.4,8.4v162.9C315.7,241.2,312,245,307.4,245z"/>
	<g id="com_code">
		<line id="code_bar" class="st1" x1="326.4" y1="242.2" x2="326.4" y2="79.1"/>
		<g id="code_tree">
			<rect x="291.7" y="80.8" class="st2" width="28.5" height="3.9"/>
			<rect x="299.4" y="90" class="st2" width="20.8" height="1.6"/>
			<rect x="299.4" y="93.2" class="st2" width="20.8" height="1.6"/>
			<rect x="299.4" y="96.3" class="st2" width="20.8" height="1.6"/>
			<rect x="296.8" y="114.9" class="st2" width="23.4" height="2.8"/>
			<rect x="299.4" y="99.5" class="st2" width="20.8" height="1.6"/>
			<rect x="299.4" y="119.9" class="st2" width="20.8" height="1.6"/>
			<rect x="299.4" y="123.3" class="st2" width="20.8" height="1.6"/>
			<rect x="299.4" y="126.9" class="st2" width="20.8" height="1.6"/>
		</g>
		<g id="code2">
			<path id="cll1" class="st3" d="M355.2,153.1h-22c-0.9,0-1.6-0.7-1.6-1.6v-1c0-0.9,0.7-1.6,1.6-1.6h22c0.9,0,1.6,0.7,1.6,1.6v1
				C356.8,152.4,356,153.1,355.2,153.1z"/>
			<path id="cll2" class="st4" d="M361.2,159.9h-22c-0.9,0-1.6-0.7-1.6-1.6v-1c0-0.9,0.7-1.6,1.6-1.6h22c0.9,0,1.6,0.7,1.6,1.6v1
				C362.8,159.2,362.1,159.9,361.2,159.9z"/>
			<path id="cll7" class="st3" d="M368.9,180.2h-22c-0.9,0-1.6-0.7-1.6-1.6v-1c0-0.9,0.7-1.6,1.6-1.6h22c0.9,0,1.6,0.7,1.6,1.6v1
				C370.5,179.5,369.8,180.2,368.9,180.2z"/>
			<path id="cll3" class="st5" d="M395,166.7h-48.2c-0.9,0-1.6-0.7-1.6-1.6v-1c0-0.9,0.7-1.6,1.6-1.6H395c0.9,0,1.6,0.7,1.6,1.6v1
				C396.6,166,395.8,166.7,395,166.7z"/>
			<path id="cll4" class="st6" d="M403.3,166.7h-4.1c-0.9,0-1.6-0.7-1.6-1.6v-1c0-0.9,0.7-1.6,1.6-1.6h4.1c0.9,0,1.6,0.7,1.6,1.6v1
				C404.9,166,404.2,166.7,403.3,166.7z"/>
			<path id="cll8" class="st7" d="M356.9,186.3h-4.1c-0.9,0-1.6-0.7-1.6-1.6v-1c0-0.9,0.7-1.6,1.6-1.6h4.1c0.9,0,1.6,0.7,1.6,1.6v1
				C358.4,185.5,357.7,186.3,356.9,186.3z"/>
			<path id="cll9" class="st3" d="M373.8,186.3H361c-0.9,0-1.6-0.7-1.6-1.6v-1c0-0.9,0.7-1.6,1.6-1.6h12.8c0.9,0,1.6,0.7,1.6,1.6v1
				C375.3,185.5,374.6,186.3,373.8,186.3z"/>
			<path id="cll6" class="st8" d="M368.5,173.2h-12.8c-0.9,0-1.6-0.7-1.6-1.6v-1c0-0.9,0.7-1.6,1.6-1.6h12.8c0.9,0,1.6,0.7,1.6,1.6
				v1C370.1,172.5,369.4,173.2,368.5,173.2z"/>
			<path id="cll10" class="st8" d="M390.4,186.3h-12.8c-0.9,0-1.6-0.7-1.6-1.6v-1c0-0.9,0.7-1.6,1.6-1.6h12.8c0.9,0,1.6,0.7,1.6,1.6
				v1C392,185.5,391.3,186.3,390.4,186.3z"/>
			<path id="cll5" class="st3" d="M351.3,173.4h-4.1c-0.9,0-1.6-0.7-1.6-1.6v-1c0-0.9,0.7-1.6,1.6-1.6h4.1c0.9,0,1.6,0.7,1.6,1.6v1
				C352.9,172.7,352.2,173.4,351.3,173.4z"/>
		</g>
		<g id="code1">
			<path id="cl1" class="st3" d="M365.3,93.8H334c-0.9,0-1.6-0.7-1.6-1.6v-1c0-0.9,0.7-1.6,1.6-1.6h31.3c0.9,0,1.6,0.7,1.6,1.6v1
				C366.8,93.1,366.1,93.8,365.3,93.8z"/>
			<path id="cl2" class="st7" d="M365.3,102.5H334c-0.9,0-1.6-0.7-1.6-1.6v-1c0-0.9,0.7-1.6,1.6-1.6h31.3c0.9,0,1.6,0.7,1.6,1.6v1
				C366.8,101.7,366.1,102.5,365.3,102.5z"/>
			<path id="cl4" class="st3" d="M371.4,108h-31.3c-0.9,0-1.6-0.7-1.6-1.6v-1c0-0.9,0.7-1.6,1.6-1.6h31.3c0.9,0,1.6,0.7,1.6,1.6v1
				C373,107.3,372.3,108,371.4,108z"/>
			<path id="cl5" class="st3" d="M369.4,113.8h-22c-0.9,0-1.6-0.7-1.6-1.6v-1c0-0.9,0.7-1.6,1.6-1.6h22c0.9,0,1.6,0.7,1.6,1.6v1
				C371,113.1,370.3,113.8,369.4,113.8z"/>
			<path id="cl6" class="st8" d="M395.3,113.8h-22c-0.9,0-1.6-0.7-1.6-1.6v-1c0-0.9,0.7-1.6,1.6-1.6h22c0.9,0,1.6,0.7,1.6,1.6v1
				C396.9,113.1,396.2,113.8,395.3,113.8z"/>
			<path id="cl8" class="st9" d="M375.9,119.4h-22c-0.9,0-1.6-0.7-1.6-1.6v-1c0-0.9,0.7-1.6,1.6-1.6h22c0.9,0,1.6,0.7,1.6,1.6v1
				C377.5,118.7,376.8,119.4,375.9,119.4z"/>
			<path id="cl10" class="st3" d="M375.9,131.9h-22c-0.9,0-1.6-0.7-1.6-1.6v-1c0-0.9,0.7-1.6,1.6-1.6h22c0.9,0,1.6,0.7,1.6,1.6v1
				C377.5,131.1,376.8,131.9,375.9,131.9z"/>
			<path id="cl7" class="st3" d="M407,113.8h-7.1c-0.9,0-1.6-0.7-1.6-1.6v-1c0-0.9,0.7-1.6,1.6-1.6h7.1c0.9,0,1.6,0.7,1.6,1.6v1
				C408.6,113.1,407.9,113.8,407,113.8z"/>
			<path id="cl9" class="st6" d="M361.3,125.6h-7.1c-0.9,0-1.6-0.7-1.6-1.6v-1c0-0.9,0.7-1.6,1.6-1.6h7.1c0.9,0,1.6,0.7,1.6,1.6v1
				C362.9,124.9,362.2,125.6,361.3,125.6z"/>
			<path id="cl3" class="st3" d="M381.4,102.5h-12.2c-0.9,0-1.6-0.7-1.6-1.6v-1c0-0.9,0.7-1.6,1.6-1.6h12.2c0.9,0,1.6,0.7,1.6,1.6v1
				C383,101.7,382.3,102.5,381.4,102.5z"/>
		</g>
	</g>
	<path id="com_bd" class="st10" d="M414.6,291H83.2c-6.6,0-12-5.1-12-11.3V69.8c0-6.3,5.4-11.3,12-11.3h331.4
		c6.6,0,12,5.1,12,11.3v209.8C426.6,285.9,421.2,291,414.6,291z"/>
	<g id="com_mb">
		<path id="mb_line" class="st11" d="M223.6,218.7h-73.1c-3.7,0-6.6-3-6.6-6.6V86.7c0-3.7,3-6.6,6.6-6.6h73.1
			c3.7,0,6.6,3,6.6,6.6v125.4C230.2,215.7,227.3,218.7,223.6,218.7z"/>
		<path id="mb_backdrop" class="st12" d="M99.1,94.4v71.1c0.3,0,0.5,0,0.7,0h175.3V94.4H99.8C99.6,94.4,99.3,94.4,99.1,94.4z"/>
		<path id="mb_line" class="st13" d="M223.6,218.7h-73.1c-3.7,0-6.6-3-6.6-6.6V86.7c0-3.7,3-6.6,6.6-6.6h73.1
			c3.7,0,6.6,3,6.6,6.6v125.4C230.2,215.7,227.3,218.7,223.6,218.7z"/>
		<g id="text_ver">
			<rect x="158" y="182.1" class="st14" width="58.6" height="5.5"/>
			<rect x="158" y="190" class="st15" width="23.5" height="2.2"/>
			<rect x="158" y="200.5" class="st15" width="59" height="1.4"/>
			<rect x="158" y="203.1" class="st15" width="59" height="1.4"/>
		</g>
		<ellipse id="mb_btn" class="st16" cx="221.7" cy="87.1" rx="2.5" ry="2.6"/>
		<g id="mb_img">
			<path id="mb_imgbg" class="st17" d="M143.9,94.4v71.1c0.1,0,0.2,0,0.4,0h86V94.4h-86C144.2,94.4,144,94.4,143.9,94.4z"/>
			<circle id="mb_sun" class="st18" cx="201.9" cy="109.6" r="5.5"/>
			<path id="mb_cloud" class="st18" d="M169.3,116.1h-0.7c-1-1.3-2.5-2.1-4.3-2.1c-1.8,0-3.4,0.9-4.3,2.2
				c-1.1,0.3-1.9,1.3-1.9,2.5c0,0.9,0.4,1.7,1.1,2.1c0.4,0.3,0.9,0.5,1.5,0.5h8.6c0,0,0,0,0,0c1.4,0,2.6-1.2,2.6-2.6
				C171.9,117.3,170.8,116.1,169.3,116.1z"/>
			<path id="mb_hill" class="st19" d="M143.9,165.6h84.3c0.7,0,1.4-0.1,2-0.2v-29.7l-15.6-16.1c-0.6-0.6-2-0.6-2.6,0l-29.1,30.1
				L163.7,132c-0.7-0.6-2-0.6-2.6,0l-17.2,15.9V165.6z"/>
			<path id="mb_hill1" class="st18" d="M169.1,137l-5.4-5c-0.7-0.6-2-0.6-2.6,0l-5.3,4.9l6.8,4.9L169.1,137z"/>
			<path id="mb_hill2" class="st18" d="M213.3,131l6.2,4l5.4-4.8l-10.3-10.6c-0.6-0.6-2-0.6-2.6,0l-10.3,10.6l5.4,4.8L213.3,131
				z"/>
		</g>
	</g>
	<g id="com_desk">
		<path id="bg_hor" class="st11" d="M264,180.7H105.9c-3.9,0-7-3.1-7-7v-84c0-3.9,3.1-7,7-7H264c3.9,0,7,3.1,7,7v84
			C271,177.5,267.9,180.7,264,180.7z"/>
		<path id="com_backdrop" class="st20" d="M176.5,185.7h-66.8c-2.5,0-4.5-2-4.5-4.5V70.1c0-2.5,2-4.5,4.5-4.5h66.8
			c2.5,0,4.5,2,4.5,4.5v111.1C181,183.7,179,185.7,176.5,185.7z"/>
		<circle id="dt_btn1" class="st16" cx="106.3" cy="90.1" r="2.2"/>
		<circle class="st21" cx="112.8" cy="90.1" r="2.2"/>
		<circle class="st22" cx="119.2" cy="90.1" r="2.2"/>
		<rect id="dt_title" x="189.9" y="102.6" class="st23" width="73.6" height="9.9"/>
		<rect id="dt_sapo" x="189.9" y="114.2" class="st24" width="27.3" height="2.3"/>
		<rect id="dt_text3" x="189.9" y="163.7" class="st15" width="73.3" height="1.7"/>
		<rect id="dt_text2" x="189.9" y="161.1" class="st15" width="73.3" height="1.7"/>
		<rect id="dt_text1" x="189.9" y="158.4" class="st15" width="73.3" height="1.7"/>
		<g id="desk_img1">
			<path class="st17" d="M176.5,164.3h-66.8c-2.5,0-4.5-2-4.5-4.5v-54.1c0-2.5,2-4.5,4.5-4.5h66.8c2.5,0,4.5,2,4.5,4.5v54.1
				C181,162.3,179,164.3,176.5,164.3z"/>
			<circle class="st18" cx="168.2" cy="112.7" r="6"/>
			<path class="st18" d="M125.9,125.5h-0.8c-1.1-1.4-2.8-2.3-4.7-2.3c-2,0-3.7,1-4.8,2.4c-1.2,0.3-2.1,1.4-2.1,2.8
				c0,1,0.5,1.8,1.2,2.3c0.5,0.3,1,0.5,1.7,0.5h9.4c0,0,0,0,0,0c1.6,0,2.9-1.3,2.9-2.9C128.8,126.7,127.5,125.5,125.9,125.5z"/>
			<path class="st19" d="M112.1,164.1h61.6c3.7,0,6.7-2.5,6.7-5.5v-13.4l-16.6-19.8c-0.5-0.5-1.4-0.5-1.9,0l-21.2,25.3l-13.9-14.8
				c-0.5-0.5-1.4-0.5-1.9,0l-19.5,20.9v1.9C105.4,161.6,108.4,164.1,112.1,164.1z"/>
			<path class="st18" d="M130.8,140l-3.9-4.2c-0.5-0.5-1.4-0.5-1.9,0l-3.8,4.1l5,4.1L130.8,140z"/>
			<path class="st18" d="M162.9,135l4.5,3.4l4-4.1l-7.5-8.9c-0.5-0.5-1.4-0.5-1.9,0l-7.5,8.9l4,4.1L162.9,135z"/>
		</g>
		<path id="dt_tab1" class="st15" d="M202.6,154.9h-11.8c-0.8,0-1.4-0.6-1.4-1.4v-5.2c0-0.8,0.6-1.4,1.4-1.4h11.8
			c0.8,0,1.4,0.6,1.4,1.4v5.2C204,154.3,203.4,154.9,202.6,154.9z"/>
		<g id="dt_tab2">
			<path class="st15" d="M218.5,148c0.2,0,0.3,0.1,0.3,0.3v5.2c0,0.2-0.1,0.3-0.3,0.3h-11.8c-0.2,0-0.3-0.1-0.3-0.3v-5.2
				c0-0.2,0.1-0.3,0.3-0.3H218.5 M218.5,146.9h-11.8c-0.8,0-1.4,0.6-1.4,1.4v5.2c0,0.8,0.6,1.4,1.4,1.4h11.8c0.8,0,1.4-0.6,1.4-1.4
				v-5.2C219.9,147.6,219.3,146.9,218.5,146.9L218.5,146.9z"/>
		</g>
		<g id="dt_tab3">
			<path class="st15" d="M234.4,148c0.2,0,0.3,0.1,0.3,0.3v5.2c0,0.2-0.1,0.3-0.3,0.3h-11.8c-0.2,0-0.3-0.1-0.3-0.3v-5.2
				c0-0.2,0.1-0.3,0.3-0.3H234.4 M234.4,146.9h-11.8c-0.8,0-1.4,0.6-1.4,1.4v5.2c0,0.8,0.6,1.4,1.4,1.4h11.8c0.8,0,1.4-0.6,1.4-1.4
				v-5.2C235.8,147.6,235.2,146.9,234.4,146.9L234.4,146.9z"/>
		</g>
		<g id="dt_tab4">
			<path class="st15" d="M250.3,148.1c0.2,0,0.3,0.1,0.3,0.3v5.2c0,0.2-0.1,0.3-0.3,0.3h-11.8c-0.2,0-0.3-0.1-0.3-0.3v-5.2
				c0-0.2,0.1-0.3,0.3-0.3H250.3 M250.3,147h-11.8c-0.8,0-1.4,0.6-1.4,1.4v5.2c0,0.8,0.6,1.4,1.4,1.4h11.8c0.8,0,1.4-0.6,1.4-1.4
				v-5.2C251.6,147.6,251,147,250.3,147L250.3,147z"/>
		</g>
		<path id="bg_hor" class="st13" d="M264,180.7H105.9c-3.9,0-7-3.1-7-7v-84c0-3.9,3.1-7,7-7H264c3.9,0,7,3.1,7,7v84
			C271,177.5,267.9,180.7,264,180.7z"/>
	</g>
	<circle id="com_ring" class="st25" cx="248.9" cy="274.1" r="9"/>
	<line id="com_line" class="st10" x1="78.1" y1="255.8" x2="419.7" y2="255.8"/>
</g>
<g id="coffee">
	<path class="st26" d="M117.1,403.8l-1.8-0.4c-0.8-0.2-1.3-1-1.1-1.8l0.4-1.8c0.2-0.8,1-1.3,1.8-1.1l1.8,0.4c0.8,0.2,1.3,1,1.1,1.8
		l-0.4,1.8C118.7,403.5,117.9,404,117.1,403.8z"/>
	<rect x="104.1" y="417.2" class="st27" width="19" height="3.5"/>
	<path class="st28" d="M104.9,417.3h18.6l1.2-17c-1.6,0.6-3.7,1.4-7.3,1.3c-4-0.2-9.4-2.1-14-3.5L104.9,417.3z"/>
	<polygon class="st29" points="126,388.9 101.2,388.9 103.4,417.5 123.9,417.5 	"/>
	<path class="st30" d="M111.3,408.7l-1.8-0.4c-0.8-0.2-1.3-1-1.1-1.8l0.4-1.8c0.2-0.8,1-1.3,1.8-1.1l1.8,0.4c0.8,0.2,1.3,1,1.1,1.8
		l-0.4,1.8C112.9,408.4,112.1,408.9,111.3,408.7z"/>
	<path class="st30" d="M117.2,411l-1.3,0.7c-0.6,0.3-1.3,0.1-1.6-0.4l-0.7-1.3c-0.3-0.6-0.1-1.3,0.4-1.6l1.3-0.7
		c0.6-0.3,1.3-0.1,1.6,0.4l0.7,1.3C117.9,410,117.8,410.7,117.2,411z"/>
</g>
<g id="nw">
	<path id="nw1" class="st31" d="M266.8,375.8c9.1-13.9,7-20.5,16.7-30c9.7-9.5,25.2-1.2,38.5-11.6c13.3-10.4,2.8-19.8,21.8-36.1
		c19-16.3,57.2-13.1,72-26.5c14.8-13.4,8.9-23.3,30.4-32.6"/>
	<path id="nw2" class="st31" d="M267.3,371.3c10.3-12.9,5.3-10.8,15.8-19.3c10.5-8.5,25.2,1.3,39.3-7.7
		c14.1-9.1,4.5-19.4,24.9-33.7c20.4-14.3,37.9,7.7,53.8-4.1c15.9-11.8,22.1-39.7,40.6-53.4"/>
	<path id="nw3" class="st31" d="M269.5,366.7c11.8-9.6,16.4-9.5,32.3-19.7c15.9-10.2,5.1-21.9,28.1-38
		c22.9-16.1,58.7-11.2,76.6-24.5c17.9-13.3,11.4-29.4,32.3-44.8"/>
	<path id="nw5" class="st31" d="M271.3,364c11.8-9.6,28.4,1.5,44.3-8.7c15.9-10.2,5.1-21.9,28.1-38c22.9-16.1,41,0.3,58.9-13
		c17.9-13.3,14.4-40.1,38.2-48"/>
	<path id="nw6" class="st31" d="M267,367.5c9.7-9.5,41.8,0.5,55.1-9.9c13.3-10.4,2.8-19.8,21.8-36.1c19-16.3,53.9-4.1,72.1-11.2
		c22.4-8.7,1.5-37.2,26.8-46.6"/>
	<path id="nw7" class="st31" d="M269.6,366.2c11.8-9.6,34,9,49.9-1.2c15.9-10.2,5.1-21.9,28.1-38c22.9-16.1,46.8,0,64.7-13.3
		c17.9-13.3,10.8-51.9,31.7-67.3"/>
	<path id="nw4" class="st31" d="M263.3,366.4c28.6-11.2,71.2,31.1,94.6,24.6c23.4-6.5,31.7-43.1,50.8-43.4
		c19.1-0.4,26.2,13,38.2,12.3"/>
	<path id="nw8" class="st31" d="M268.2,371.7c16.4-7.2,16.8-57.6,40.5-69.6c23.7-12,25.9,38.8,43.1,33.1
		c17.2-5.7-2.2-79.6,53.6-92s41.6-12.8,41.6-12.8"/>
</g>
<line id="ground" class="st32" x1="17" y1="421.1" x2="484" y2="421.1"/>
<g id="designer">
	<g id="boy">
		<path class="st33" d="M269.3,338c4.8,1.9,8.7,9.7,9.7,24.2c0.2,2.9-12.6-16.4-21.3-12.6c-11.2,5-19.3-2.9-19.3-2.9L221.9,366
			c0,0-2.9-14.5,0-20.3c1.8-3.7,6.9-5.6,8.3-6.7s4.3-4.9,5.2-5.9c1-1,1-1.9,2.9-1.9s5.8-1,6.8-1c1,0,0.5,0.5,0.2,2.2
			c-0.2,1.7,5.6-1.2,11.4-1.2c4,0,6.8,0,7.7,1.9L269.3,338z"/>
		<circle class="st33" cx="250" cy="362.1" r="29"/>
		<path class="st34" d="M233.5,376.6c-20.3,0-84,77.3-51.2,77.3s88.9,0,130.4,0s-17.4-77.3-54.1-77.3S233.5,376.6,233.5,376.6z"/>
	</g>
	<g id="headphone">
		<path id="ep" class="st35" d="M276.5,360.6c0-15.2-12.4-27.6-27.6-27.6c-15.2,0-27.6,12.4-27.6,27.6"/>
		<circle class="st36" cx="219.4" cy="363.8" r="5.5"/>
		<circle id="ep2" class="st36" cx="277.9" cy="363.8" r="5.5"/>
		<path class="st36" d="M222,375.3h-0.6c-1.9,0-3.4-1.5-3.4-3.4v-16.2c0-1.9,1.5-3.4,3.4-3.4h0.6c1.9,0,3.4,1.5,3.4,3.4v16.2
			C225.4,373.8,223.9,375.3,222,375.3z"/>
		<path id="ep1" class="st36" d="M275.8,375.3h-0.6c-1.9,0-3.4-1.5-3.4-3.4v-16.2c0-1.9,1.5-3.4,3.4-3.4h0.6
			c1.9,0,3.4,1.5,3.4,3.4v16.2C279.2,373.8,277.7,375.3,275.8,375.3z"/>
	</g>
	<g id="chair">
		<ellipse id="shadow" class="st37" cx="256.7" cy="475.8" rx="65.8" ry="16.2"/>
		<rect x="294.2" y="453.5" class="st38" width="5.5" height="20.2"/>
		<line class="st39" x1="195.8" y1="448" x2="195.8" y2="473.8"/>
		<line class="st39" x1="299.8" y1="448" x2="299.8" y2="473.8"/>
		<path class="st40" d="M302.5,371.6H194c-9.1,0-15.9,7.4-15,16.5l2.6,27.7l0,0c0,0,2.2,25.8,3.2,34c1.8,15.6,125.1,16.6,127,0
			c0.9-9.1,3.1-33.7,3.2-34l2.6-27.7C318.3,379.1,311.6,371.6,302.5,371.6z"/>
		<path class="st41" d="M316.4,452.7c0.9-9.5,3.3-34.9,3.3-35.3l2.7-28.7c0.9-9.4-6.1-17.1-15.6-17.1c0,0-0.9,0-0.9,0
			c5.8,7.6-0.1,42-1,63c-0.1,3-0.4,6-0.6,9c0,0.4-0.1,0.8-0.3,1.2c-0.3,0.4-0.8,0.6-1.2,0.7c-18.1,5.9-36.7,8.8-55.6,10.4
			c-10.3,0.9-20.7,1.2-31,0.8c-5.3-0.2-10.6-0.6-15.8-1.2c-1.6-0.2-15.4-1.5-15.6-2.6C186.7,469,314.5,469.9,316.4,452.7z"/>
		<path class="st42" d="M302.5,371.6H194c-9.1,0-15.9,7.4-15,16.5l2.6,27.7l0,0c0,0,2.2,25.8,3.2,34c1.8,15.6,125.1,16.6,127,0
			c0.9-9.1,3.1-33.7,3.2-34l2.6-27.7C318.3,379.1,311.6,371.6,302.5,371.6z"/>
		<line class="st42" x1="192.1" y1="382.7" x2="299.8" y2="382.7"/>
		<path class="st43" d="M182.9,388.2c0-5.5,4.6-11,10.1-11"/>
	</g>
</g>
<g id="board">
	<path id="wc_bg" class="st0" d="M436.7,263.6H120.1c-6.6,0-11.9-5.3-11.9-11.9V82c0-6.6,5.3-11.9,11.9-11.9h316.7
		c6.6,0,11.9,5.3,11.9,11.9v169.6C448.6,258.3,443.3,263.6,436.7,263.6z"/>
	<path id="wc" class="st44" d="M431.2,279.8H64.8c-6.6,0-11.9-5.3-11.9-11.9V66.7c0-6.6,5.3-11.9,11.9-11.9h366.4
		c6.6,0,11.9,5.3,11.9,11.9v201.3C443.1,274.5,437.8,279.8,431.2,279.8z"/>
	<rect id="btn1" x="74.9" y="100.5" class="st45" width="15.9" height="9.7"/>
	<rect id="btn2" x="74.9" y="116" class="st45" width="15.9" height="9.7"/>
	<rect id="btn3" x="74.9" y="131.6" class="st45" width="15.9" height="9.7"/>
	<rect id="btn4" x="74.9" y="191.8" class="st45" width="15.9" height="9.7"/>
	<rect id="btn5" x="74.9" y="207.3" class="st45" width="15.9" height="9.7"/>
	<rect id="btn6" x="74.9" y="222.9" class="st45" width="15.9" height="9.7"/>
	<circle id="btn-mid" class="st46" cx="82.5" cy="164.4" r="9.1"/>
	<g id="bp">
		<rect id="bp_bg" x="185.3" y="87.3" class="st47" width="128.5" height="157.3"/>
		<g id="bp_line">
			<rect x="189.2" y="89" class="st48" width="31.5" height="31.5"/>
			<rect x="220.7" y="89" class="st48" width="31.5" height="31.5"/>
			<rect x="252.2" y="89" class="st48" width="31.5" height="31.5"/>
			<rect x="283.7" y="89" class="st48" width="31.5" height="31.5"/>
			<rect x="189.2" y="120.5" class="st48" width="31.5" height="31.5"/>
			<rect x="220.7" y="120.5" class="st48" width="31.5" height="31.5"/>
			<rect x="252.2" y="120.5" class="st48" width="31.5" height="31.5"/>
			<rect x="283.7" y="120.5" class="st48" width="31.5" height="31.5"/>
			<rect x="189.2" y="152" class="st48" width="31.5" height="31.5"/>
			<rect x="220.7" y="152" class="st48" width="31.5" height="31.5"/>
			<rect x="252.2" y="152" class="st48" width="31.5" height="31.5"/>
			<rect x="283.7" y="152" class="st48" width="31.5" height="31.5"/>
			<rect x="189.2" y="183.6" class="st48" width="31.5" height="31.5"/>
			<rect x="220.7" y="183.6" class="st48" width="31.5" height="31.5"/>
			<rect x="252.2" y="183.6" class="st48" width="31.5" height="31.5"/>
			<rect x="283.7" y="183.6" class="st48" width="31.5" height="31.5"/>
			<rect x="189.2" y="215.1" class="st48" width="31.5" height="31.5"/>
			<rect x="220.7" y="215.1" class="st48" width="31.5" height="31.5"/>
			<rect x="252.2" y="215.1" class="st48" width="31.5" height="31.5"/>
			<rect x="283.7" y="215.1" class="st48" width="31.5" height="31.5"/>
		</g>
		<g id="bp_logo">
			<path class="st49" d="M266.5,174.5c-0.9,0-1.7-0.4-2.3-1.1c-1.1-1.3-0.9-3.2,0.4-4.2c4.7-3.9,7.4-9.6,7.4-15.7
				c0-11.3-9.2-20.4-20.4-20.4c-11.3,0-20.4,9.2-20.4,20.4c0,6.1,2.7,11.8,7.4,15.7c1.3,1.1,1.5,3,0.4,4.2c-1.1,1.3-3,1.5-4.2,0.4
				c-6.1-5-9.6-12.5-9.6-20.4c0-14.6,11.9-26.5,26.5-26.5c14.6,0,26.5,11.9,26.5,26.5c0,7.9-3.5,15.3-9.6,20.4
				C267.8,174.2,267.2,174.5,266.5,174.5z"/>
			<path class="st49" d="M253.3,197.6h-3.6c-1.7,0-3-1.3-3-3c0-1.7,1.3-3,3-3h3.6c1.7,0,3,1.3,3,3
				C256.3,196.3,255,197.6,253.3,197.6z"/>
			<path class="st49" d="M251.5,179.9c-2.8,0-5.5-0.4-8.1-1.3c-1.6-0.5-2.4-2.2-1.9-3.8c0.5-1.6,2.2-2.4,3.8-1.9
				c4.1,1.3,8.5,1.3,12.6,0c1.6-0.5,3.3,0.4,3.8,1.9c0.5,1.6-0.4,3.3-1.9,3.8C257,179.4,254.3,179.9,251.5,179.9z"/>
			<path class="st49" d="M251.5,188.9c-2.8,0-5.5-0.4-8.1-1.3c-1.6-0.5-2.4-2.2-1.9-3.8c0.5-1.6,2.2-2.4,3.8-1.9
				c4.1,1.3,8.5,1.3,12.6,0c1.6-0.5,3.3,0.4,3.8,1.9c0.5,1.6-0.4,3.3-1.9,3.8C257,188.5,254.3,188.9,251.5,188.9z"/>
		</g>
	</g>
	<g id="nc1">
		<rect x="368.9" y="99.3" class="st50" width="47" height="25.8"/>
		<rect x="369.6" y="106.8" class="st47" width="45.7" height="9.9"/>
		<path class="st49" d="M395.6,116.1c-0.2,0-0.4-0.1-0.5-0.2c-0.2-0.3-0.2-0.7,0.1-0.9c1-0.9,1.6-2.1,1.6-3.5c0-2.5-2-4.5-4.5-4.5
			s-4.5,2-4.5,4.5c0,1.3,0.6,2.6,1.6,3.5c0.3,0.2,0.3,0.7,0.1,0.9c-0.2,0.3-0.7,0.3-0.9,0.1c-1.3-1.1-2.1-2.7-2.1-4.5
			c0-3.2,2.6-5.8,5.8-5.8c3.2,0,5.8,2.6,5.8,5.8c0,1.7-0.8,3.4-2.1,4.5C395.9,116.1,395.8,116.1,395.6,116.1z"/>
		<path class="st49" d="M392.7,121.2h-0.8c-0.4,0-0.7-0.3-0.7-0.7c0-0.4,0.3-0.7,0.7-0.7h0.8c0.4,0,0.7,0.3,0.7,0.7
			C393.4,120.9,393.1,121.2,392.7,121.2z"/>
		<path class="st49" d="M392.3,117.3c-0.6,0-1.2-0.1-1.8-0.3c-0.3-0.1-0.5-0.5-0.4-0.8c0.1-0.3,0.5-0.5,0.8-0.4
			c0.9,0.3,1.9,0.3,2.8,0c0.3-0.1,0.7,0.1,0.8,0.4c0.1,0.3-0.1,0.7-0.4,0.8C393.5,117.2,392.9,117.3,392.3,117.3z"/>
		<path class="st49" d="M392.3,119.3c-0.6,0-1.2-0.1-1.8-0.3c-0.3-0.1-0.5-0.5-0.4-0.8c0.1-0.3,0.5-0.5,0.8-0.4
			c0.9,0.3,1.9,0.3,2.8,0c0.3-0.1,0.7,0.1,0.8,0.4c0.1,0.3-0.1,0.7-0.4,0.8C393.5,119.2,392.9,119.3,392.3,119.3z"/>
		<line class="st51" x1="371.1" y1="122" x2="384.8" y2="122"/>
		<line class="st51" x1="399.9" y1="122" x2="413.6" y2="122"/>
	</g>
	<g id="nc2">
		<rect x="368.9" y="134.1" class="st50" width="47" height="25.8"/>
		<rect x="369.6" y="141.6" class="st47" width="45.7" height="9.9"/>
		<path class="st49" d="M395.6,151c-0.2,0-0.4-0.1-0.5-0.2c-0.2-0.3-0.2-0.7,0.1-0.9c1-0.9,1.6-2.1,1.6-3.5c0-2.5-2-4.5-4.5-4.5
			s-4.5,2-4.5,4.5c0,1.3,0.6,2.6,1.6,3.5c0.3,0.2,0.3,0.7,0.1,0.9c-0.2,0.3-0.7,0.3-0.9,0.1c-1.3-1.1-2.1-2.7-2.1-4.5
			c0-3.2,2.6-5.8,5.8-5.8c3.2,0,5.8,2.6,5.8,5.8c0,1.7-0.8,3.4-2.1,4.5C395.9,150.9,395.8,151,395.6,151z"/>
		<path class="st49" d="M392.7,156.1h-0.8c-0.4,0-0.7-0.3-0.7-0.7s0.3-0.7,0.7-0.7h0.8c0.4,0,0.7,0.3,0.7,0.7
			S393.1,156.1,392.7,156.1z"/>
		<path class="st49" d="M392.3,152.2c-0.6,0-1.2-0.1-1.8-0.3c-0.3-0.1-0.5-0.5-0.4-0.8c0.1-0.3,0.5-0.5,0.8-0.4
			c0.9,0.3,1.9,0.3,2.8,0c0.3-0.1,0.7,0.1,0.8,0.4c0.1,0.3-0.1,0.7-0.4,0.8C393.5,152.1,392.9,152.2,392.3,152.2z"/>
		<path class="st49" d="M392.3,154.2c-0.6,0-1.2-0.1-1.8-0.3c-0.3-0.1-0.5-0.5-0.4-0.8c0.1-0.3,0.5-0.5,0.8-0.4
			c0.9,0.3,1.9,0.3,2.8,0c0.3-0.1,0.7,0.1,0.8,0.4c0.1,0.3-0.1,0.7-0.4,0.8C393.5,154.1,392.9,154.2,392.3,154.2z"/>
		<line class="st51" x1="371.1" y1="156.8" x2="384.8" y2="156.8"/>
		<line class="st51" x1="399.9" y1="156.8" x2="413.6" y2="156.8"/>
	</g>
	<g id="a4">
		<rect x="239" y="99.3" class="st50" width="119.7" height="148.5"/>
		<rect x="238.8" y="97.7" class="st47" width="120.3" height="32.6"/>
		<path class="st49" d="M263.3,119.3c-0.2,0-0.5-0.1-0.7-0.3c-0.3-0.4-0.3-0.9,0.1-1.2c1.3-1.1,2.1-2.8,2.1-4.5
			c0-3.2-2.6-5.9-5.9-5.9s-5.9,2.6-5.9,5.9c0,1.7,0.8,3.4,2.1,4.5c0.4,0.3,0.4,0.8,0.1,1.2c-0.3,0.4-0.8,0.4-1.2,0.1
			c-1.7-1.4-2.7-3.6-2.7-5.8c0-4.2,3.4-7.6,7.6-7.6c4.2,0,7.6,3.4,7.6,7.6c0,2.3-1,4.4-2.7,5.8C263.7,119.2,263.5,119.3,263.3,119.3
			z"/>
		<path class="st49" d="M259.5,126h-1c-0.5,0-0.9-0.4-0.9-0.9c0-0.5,0.4-0.9,0.9-0.9h1c0.5,0,0.9,0.4,0.9,0.9
			C260.4,125.6,260,126,259.5,126z"/>
		<path class="st49" d="M259,120.9c-0.8,0-1.6-0.1-2.3-0.4c-0.5-0.1-0.7-0.6-0.6-1.1c0.1-0.5,0.6-0.7,1.1-0.6c1.2,0.4,2.4,0.4,3.6,0
			c0.5-0.1,0.9,0.1,1.1,0.6c0.1,0.5-0.1,0.9-0.6,1.1C260.6,120.7,259.8,120.9,259,120.9z"/>
		<path class="st49" d="M259,123.5c-0.8,0-1.6-0.1-2.3-0.4c-0.5-0.1-0.7-0.6-0.6-1.1c0.1-0.5,0.6-0.7,1.1-0.6c1.2,0.4,2.4,0.4,3.6,0
			c0.5-0.1,0.9,0.1,1.1,0.6c0.1,0.5-0.1,0.9-0.6,1.1C260.6,123.3,259.8,123.5,259,123.5z"/>
		<line class="st51" x1="252.9" y1="144" x2="266.6" y2="144"/>
		<line class="st51" x1="328.7" y1="214.4" x2="342.3" y2="214.4"/>
		<line class="st51" x1="252.9" y1="155.3" x2="343.1" y2="155.3"/>
		<line class="st51" x1="252.9" y1="164.4" x2="343.1" y2="164.4"/>
		<line class="st51" x1="252.9" y1="173.5" x2="343.1" y2="173.5"/>
		<line class="st51" x1="252.9" y1="182.6" x2="343.1" y2="182.6"/>
		<line class="st51" x1="252.9" y1="191.7" x2="343.1" y2="191.7"/>
		<line class="st51" x1="252.9" y1="200.8" x2="343.1" y2="200.8"/>
		<rect x="239" y="99.3" class="st52" width="119.7" height="148.5"/>
	</g>
	<g id="board_en">
		<rect x="368.9" y="166.1" class="st50" width="47" height="81.7"/>
		<rect x="376.9" y="166.5" class="st47" width="8.8" height="80.9"/>
		<path class="st53" d="M410.8,166.1h-1.2c-1.6,0-2.8,1.3-2.8,2.8v76c0,1.6,1.3,2.8,2.8,2.8h1.2h5.1v-81.7H410.8z"/>
		<line class="st51" x1="373.7" y1="171.7" x2="373.7" y2="194.6"/>
		<line class="st51" x1="373.7" y1="219" x2="373.7" y2="241.9"/>
		<g>
			<path class="st49" d="M389.7,210.2c0-0.2,0.1-0.4,0.2-0.5c0.3-0.2,0.7-0.2,0.9,0.1c0.9,1,2.1,1.6,3.5,1.6c2.5,0,4.5-2,4.5-4.5
				s-2-4.5-4.5-4.5c-1.3,0-2.6,0.6-3.5,1.6c-0.2,0.3-0.7,0.3-0.9,0.1c-0.3-0.2-0.3-0.7-0.1-0.9c1.1-1.3,2.7-2.1,4.5-2.1
				c3.2,0,5.8,2.6,5.8,5.8s-2.6,5.8-5.8,5.8c-1.7,0-3.4-0.8-4.5-2.1C389.7,210.5,389.7,210.4,389.7,210.2z"/>
			<path class="st49" d="M384.6,207.3v-0.8c0-0.4,0.3-0.7,0.7-0.7c0.4,0,0.7,0.3,0.7,0.7v0.8c0,0.4-0.3,0.7-0.7,0.7
				C384.9,208,384.6,207.7,384.6,207.3z"/>
			<path class="st49" d="M388.5,206.9c0-0.6,0.1-1.2,0.3-1.8c0.1-0.3,0.5-0.5,0.8-0.4c0.3,0.1,0.5,0.5,0.4,0.8
				c-0.3,0.9-0.3,1.9,0,2.8c0.1,0.3-0.1,0.7-0.4,0.8c-0.3,0.1-0.7-0.1-0.8-0.4C388.6,208.1,388.5,207.5,388.5,206.9z"/>
			<path class="st49" d="M386.5,206.9c0-0.6,0.1-1.2,0.3-1.8c0.1-0.3,0.5-0.5,0.8-0.4c0.3,0.1,0.5,0.5,0.4,0.8
				c-0.3,0.9-0.3,1.9,0,2.8c0.1,0.3-0.1,0.7-0.4,0.8c-0.3,0.1-0.7-0.1-0.8-0.4C386.6,208.1,386.5,207.5,386.5,206.9z"/>
		</g>
	</g>
</g>
<g id="book">
	<rect x="442.4" y="371.3" class="st54" width="7.4" height="47.5"/>
	<rect x="431" y="381.6" class="st55" width="7.1" height="37.3"/>
	<rect x="418.3" y="374.9" class="st56" width="8" height="44"/>
	
		<rect x="382.7" y="395.2" transform="matrix(0.401 -0.9161 0.9161 0.401 -124.3831 608.6269)" class="st57" width="41" height="8.5"/>
	
		<rect x="354.1" y="401.9" transform="matrix(0.9354 -0.3537 0.3537 0.9354 -119.4256 158.7561)" class="st5" width="41" height="8.5"/>
	
		<rect x="380.2" y="395.1" transform="matrix(0.401 -0.9161 0.9161 0.401 -125.7955 606.3372)" class="st29" width="41" height="8.5"/>
	
		<rect x="350.5" y="401.9" transform="matrix(0.9354 -0.3537 0.3537 0.9354 -119.6597 157.4749)" class="st29" width="41" height="8.5"/>
	
		<rect x="357.1" y="407.9" transform="matrix(0.9354 -0.3537 0.3537 0.9354 -121.2459 154.8427)" class="st58" width="11.7" height="2.4"/>
	
		<rect x="387.7" y="400.9" transform="matrix(0.401 -0.9161 0.9161 0.401 -129.6835 606.3588)" class="st59" width="22.3" height="2.9"/>
	<rect x="417.1" y="372.5" class="st29" width="9.2" height="46.4"/>
	<rect x="428.9" y="379.9" class="st29" width="9.2" height="38.9"/>
	<rect x="440.6" y="369.4" class="st29" width="9.2" height="49.4"/>
</g>
<g id="sounds">
	<path class="st60" d="M308.6,366.6c0.3-1,0.5-2,0.7-3.1c1.1-8-2.4-15.6-8.4-20.1"/>
	<path class="st61" d="M297.6,347.8c4.5,3.4,7.1,9,6.3,15c-0.1,0.8-0.3,1.6-0.5,2.4"/>
	<path class="st61" d="M296.3,349.6c3.9,2.9,6.1,7.7,5.4,12.9c-0.1,0.7-0.3,1.4-0.5,2.1"/>
</g>
<g id="cactus">
	<path id="ct_body" class="st62" d="M87.6,380.4c-0.4-3-3.2-5.7-6.2-6.4c1.1-13.1-1.2-26.3-15.6-22.2c-2.4,0.7-4.5,1.8-6.2,3.1
		c-1.3-1.6-2.8-2.8-4.9-3.3c-2.8-0.6-5.5,0.9-6.9,3.3c-2.5,4.3-0.2,11.8,5,11.5c-2.1,9.9,1.2,22.1,6.5,28.8c1.2,1.5,2.3,0.8,4.1,0.9
		c4.6-0.1,10.7-0.3,10.7-0.3c2.5,0.3,3,0.1,3.6-1.7c0.4-1.2,0.9-2.9,1.3-4.9C83.5,389.9,88.2,385.5,87.6,380.4z"/>
	<path id="ct_line" class="st29" d="M83.7,380.1c-0.4-3-3.2-5.7-6.1-6.4c1.1-12.9-1.2-26-15.5-22c-2.4,0.7-4.5,1.7-6.2,3.1
		c-1.3-1.5-2.8-2.8-4.9-3.2c-2.8-0.6-5.4,0.9-6.8,3.3c-2.5,4.2-0.2,11.7,5,11.3c-2.1,9.8,1.2,21.9,6.4,28.6c1.2,1.5,2.3,0.8,4.1,0.9
		c4.5-0.1,10.6-0.3,10.6-0.3c2.5,0.3,3,0.1,3.5-1.7c0.4-1.2,0.8-2.9,1.3-4.8C79.7,389.5,84.3,385.1,83.7,380.1z"/>
	<circle id="eye1" cx="62.3" cy="365.4" r="1.6"/>
	<circle id="eye2" cx="69.6" cy="367.1" r="1.6"/>
	<path id="mount" class="st63" d="M62.3,371.6c0.5,1,3.2,3.1,6.5,1.1"/>
	<polygon class="st64" points="81.5,397.6 54.9,397.6 54.9,405.1 58.2,405.1 61.4,420.7 75.4,420.7 78.3,405.1 81.5,405.1 	"/>
	<polygon class="st65" points="70,420.7 74.5,397.6 82.6,397.6 82.6,405.1 79.3,406.5 75.4,420.7 	"/>
	<polygon class="st29" points="81.3,395.5 51.7,395.5 51.7,403.9 55.4,403.9 58.9,421.1 74.5,421.1 77.7,403.9 81.3,403.9 	"/>
</g>
<g id="musicnotes">
	<path id="mn8" d="M6.7,18.9C6.7,18.9,6.7,18.9,6.7,18.9C6.7,18.9,6.7,18.9,6.7,18.9L6.6,0H5.8l0.1,16.6
		c-0.6-0.7-1.5-1.2-2.5-1.2C1.5,15.4,0,17,0,18.9c0,1.9,1.5,3.4,3.3,3.4C5.2,22.3,6.7,20.9,6.7,18.9L6.7,18.9L6.7,18.9z"/>
	<path id="mn7" d="M6.4,14.6C6.4,14.6,6.4,14.6,6.4,14.6C6.4,14.6,6.4,14.6,6.4,14.6L6.4,0H5.6l0.1,12.9
		C5,12.3,4.2,12,3.2,12C1.4,12,0,13.2,0,14.6c0,1.5,1.4,2.6,3.2,2.6C5,17.3,6.4,16.2,6.4,14.6L6.4,14.6L6.4,14.6z M3.2,16.5
		c-1.3,0-2.4-0.8-2.4-1.8c0-1,1.1-1.8,2.4-1.8c1.3,0,2.4,0.8,2.4,1.8C5.6,15.6,4.5,16.5,3.2,16.5z"/>
	<path id="mn9" d="M9.7,4.4C7,2.7,6.7,0,6.7,0v0H5.8l0.1,13.5c-0.6-0.6-1.5-1-2.5-1c-1.9,0-3.4,1.3-3.4,2.8
		c0,1.5,1.5,2.8,3.4,2.8c1.8,0,3.3-1.1,3.4-2.8h0v0c0,0,0,0,0,0c0,0,0,0,0,0l0-8.9C7.1,7.1,7.9,7.9,9.2,9c2.7,2,0.8,4.2,0.8,4.2
		c1.5-0.7,2-2.5,0.7-4.1C11.8,7.9,11.9,5.9,9.7,4.4z M9.7,8.1c-2.4-1.6-2.9-3.9-3-4.3l0-1.1c0.4,0.7,1.2,1.5,2.6,2.5
		C11,6.6,10.8,8,10.5,8.8C10.2,8.5,10,8.3,9.7,8.1z"/>
	<g id="mn6">
		<path d="M12.1,4.1c-0.7-1.8-2.7-3-5.1-3c-2.2,0-4.1,1.1-4.9,2.8V0H1.4v10.7h0.7V7.2C2.9,8.8,4.8,9.9,7,9.9
			c2.4,0,4.4-1.3,5.1-3v3.8h0.7V0h-0.7V4.1z M7,8.5c-2.2,0-3.9-1.4-3.9-3c0-1.7,1.7-3,3.9-3c2.1,0,3.9,1.4,3.9,3
			C10.9,7.2,9.1,8.5,7,8.5z"/>
		<rect x="13.4" width="0.7" height="10.7"/>
		<rect width="0.7" height="10.7"/>
	</g>
	<g id="mn5">
		<path d="M6.3,1.2C6,0.8,5.5,0.5,5,0.2c-0.1,0-0.1-0.1-0.2-0.1l-0.1,0l-0.1,0l0,0l-0.1,0l-0.1,0c-0.1,0-0.1,0-0.2,0
			C4,0,3.7,0,3.5,0C3,0.1,2.6,0.2,2.3,0.4C2,0.6,1.7,0.8,1.6,1C1.4,1.2,1.4,1.4,1.3,1.6c0,0.1,0,0.1,0,0.2c0,0,0,0,0,0
			C1.2,1.9,1.1,2.1,1.1,2.2c0,0.7,0.5,1.2,1.2,1.3C3,3.5,3.6,3,3.6,2.3c0-0.6-0.5-1.2-1.1-1.3c0,0,0.1,0,0.1,0
			c0.3-0.1,0.6-0.2,0.9-0.2c0.4,0,0.7,0.1,1.1,0.3c0.4,0.2,0.7,0.4,1,0.8C5.8,2,5.9,2.2,6,2.4C6.1,2.6,6.2,2.8,6.2,3
			c0.1,0.5,0.1,1,0.1,1.5c0,0.3-0.1,0.5-0.1,0.7C6.1,5.5,6,5.7,5.9,5.9C5.8,6.2,5.7,6.4,5.5,6.6C5.4,6.8,5.2,6.9,5,7.1
			C4.7,7.4,4.3,7.7,3.9,7.9C3.5,8.1,3.1,8.2,2.7,8.3C2.3,8.4,1.9,8.5,1.6,8.5c-0.3,0-0.6,0-0.9,0c-0.2,0-0.4-0.1-0.5-0.1
			c-0.1,0-0.2,0-0.2,0s0.1,0,0.2,0.1c0.1,0,0.3,0.1,0.5,0.2C1,8.6,1.2,8.7,1.6,8.7c0.3,0,0.7,0,1.2,0c0.4-0.1,0.9-0.1,1.3-0.3
			C4.3,8.3,4.5,8.2,4.8,8C4.9,8,5,7.9,5.1,7.8c0.1-0.1,0.2-0.2,0.3-0.2c0.4-0.3,0.8-0.8,1.1-1.3C6.7,6,6.8,5.8,6.9,5.5
			C7,5.2,7.1,4.9,7.1,4.6C7.2,4,7.2,3.4,7.1,2.8C7,2.3,6.7,1.7,6.3,1.2z"/>
		<path d="M8.5,3.5c0.4,0,0.8-0.3,0.8-0.8C9.3,2.3,8.9,2,8.5,2C8.1,2,7.8,2.3,7.8,2.7C7.8,3.2,8.1,3.5,8.5,3.5z"/>
		<path d="M8.5,4C8.1,4,7.8,4.3,7.8,4.7c0,0.4,0.3,0.8,0.8,0.8c0.4,0,0.8-0.3,0.8-0.8C9.3,4.3,8.9,4,8.5,4z"/>
	</g>
	<path id="mn4" d="M7.5,1.8c0,0-1.2,1.2-3.2,1.9C4.4,3.5,4.4,3.3,4.4,3c0-1.2-1-2.2-2.2-2.2C1,0.8,0,1.8,0,3
		c0,0.1,0,0.2,0,0.2c0,0.3,0.1,0.7,0.2,1c0.2,0.4,0.9,1.3,2.5,1.1c1.7-0.2,3.1-0.9,4-1.5l-3.1,10l1.2,0.4L9.3,0L7.5,1.8z"/>
	<path id="mn3" d="M11.1,13.5C11.1,13.5,11.1,13.5,11.1,13.5C11.1,13.5,11.1,13.5,11.1,13.5L7,0.2l0,0L6.9,0L0,3.5
		l0.5,1.6l3.2,10.2C3.1,15,2.5,14.8,1.9,15c-1.2,0.4-1.8,1.7-1.3,3.1c0.4,1.3,1.7,2.1,2.8,1.8c1.1-0.4,1.8-1.6,1.3-3.1l0,0l0,0
		c0,0,0,0,0,0c0,0,0,0,0,0L1,4.9l5.9-3.1l3.2,10.3c-0.5-0.4-1.2-0.5-1.8-0.3c-1.2,0.4-1.8,1.7-1.3,3.1c0.4,1.3,1.7,2.1,2.8,1.8
		C10.9,16.2,11.6,14.9,11.1,13.5L11.1,13.5L11.1,13.5z"/>
	<path id="mn2" d="M12.9,0c-1.7,0-3,1.1-3,2.5h0v0c0,0,0,0,0,0c0,0,0,0,0,0l0.1,12.3L0.8,16l0-10.7
		c0.6,0.5,1.4,0.9,2.3,0.9c1.7,0,3-1.1,3-2.5c0-1.4-1.4-2.5-3-2.5c-1.7,0-3,1.1-3,2.5h0v0c0,0,0,0,0,0c0,0,0,0,0,0l0.1,13.8h0l0,0.2
		l10.6-1.3l0-1.6L10.6,4.2C11.2,4.7,12,5,12.9,5c1.7,0,3-1.1,3-2.5S14.6,0,12.9,0z"/>
	<path id="mn1" d="M13.5,5.6V4.2H10V0H8.6v4.2H4.9v-3H3.5v3H0v1.4h3.5v3.5H0v1.4h3.5v4.2h1.4v-4.2h3.7v3H10v-3h3.5
		V9.1H10V5.6H13.5z M8.6,9.1H4.9V5.6h3.7V9.1z"/>
</g>
<g id="shapes">
	<path id="shape1" d="M10.6,9.2H0L5.3,0L10.6,9.2z"/>
	<path id="shape2" d="M9.6,9.6H0V0h9.6V9.6z"/>
	<path id="shape4" d="M12.3,6.1c0,3.4-2.8,6.1-6.1,6.1S0,9.5,0,6.1S2.8,0,6.1,0S12.3,2.8,12.3,6.1z"/>
	<g id="shape3">
		<line x1="5.7" y1="11.4" x2="5.7" y2="0"/>
		<line x1="0" y1="5.7" x2="11.4" y2="5.7"/>
	</g>
</g>
<g id="cactus2">
	<path id="ct_body2" class="st62" d="M88,366.2c-0.3-2.6-2.9-4.9-7.6-3.6c-5.5-13.1-17.6-6-20.3-1.7c-1.8,2.9-4.1,6.2-4,13.7
		c-1.6-1-3.2-1.8-5-1.7c-2.9,0.1-4.4,2.9-4.4,4.8c0,2.3,2,6.9,8.8,6c0.5,2,2,5.4,5.1,11c0.8,1.4,2,0.7,3.5,0.8
		c3.9-0.1,9.2-0.2,9.2-0.2c2.2-0.1,2.5,0.1,3.3-1.4c3.8-7.9,4.9-15.2,5.4-17.9C85.2,373.2,88.5,370.5,88,366.2z"/>
	<path id="ct_line2" class="st29" d="M86.4,364.1c-0.3-2.8-3.4-6.2-8.1-3.8c1-12-14.6-11.3-21.7-1.9c-3.2,4.2-4,12-4.3,14.7
		c-1.7-1.1-3.4-1.9-5.4-1.8c-3.1,0.1-4.7,3.1-4.7,5.1c0,2.5,2.2,7.4,9.4,6.5c0.6,2.1,2.1,5.8,5.4,11.7c0.9,1.5,2.1,0.8,3.8,0.8
		c4.2-0.1,9.8-0.3,9.8-0.3c2.4-0.1,2.7,0.1,3.5-1.5c4.1-8.5,5.3-16.2,5.8-19.2C83.4,371.6,86.9,368.7,86.4,364.1z"/>
	<circle id="eye21" cx="63.9" cy="371.7" r="1.5"/>
	<circle id="eye22" cx="71" cy="370.7" r="1.5"/>
	<path id="mount2" class="st63" d="M64.8,377.4c0.7,0.8,3.5,2.1,6.1-0.3"/>
</g>
<g id="cont">
	<circle id="cont_circle" class="st73" cx="68.1" cy="68.2" r="66"/>
	<path id="mes_box" class="st32" d="M110.4,2.2L8.6,12.7c-4,0.4-6.8,3.9-6.4,7.9l6.4,62.8c0.4,4,3.9,6.8,7.9,6.4l11.2-1.2
		l2.9,28.1l23.9-30.8l63.8-6.5c4-0.4,6.8-3.9,6.4-7.9l-6.4-62.8C117.9,4.7,114.4,1.8,110.4,2.2z"/>
	<line id="mes1" class="st74" x1="23.1" y1="32.2" x2="106.8" y2="23"/>
	<line id="mes2" class="st42" x1="25.7" y1="49" x2="68.5" y2="44.3"/>
	<line id="mes3" class="st32" x1="26.1" y1="66.9" x2="65.7" y2="62.7"/>
	<g id="contact_en">
		<path id="en_bg" class="st75" d="M102.9,96.1H29.4c-4,0-7.3-3.3-7.3-7.3V47.6c0-4,3.3-7.3,7.3-7.3h73.5c4,0,7.3,3.3,7.3,7.3
			v41.2C110.2,92.9,106.9,96.1,102.9,96.1z"/>
		<path class="st32" d="M107.6,100.4H34.1c-4,0-7.3-3.3-7.3-7.3V51.9c0-4,3.3-7.3,7.3-7.3h73.5c4,0,7.3,3.3,7.3,7.3v41.2
			C114.9,97.1,111.6,100.4,107.6,100.4z"/>
		<path class="st32" d="M108.1,44.6H33.6c-3.4,0-6.2,2.6-6.7,5.9l41.8,26.1c1.3,0.8,3,0.8,4.3,0l41.8-26.1
			C114.4,47.2,111.6,44.6,108.1,44.6z"/>
	</g>
</g>
<g id="isme_bg">
	<g class="st76">
		<path class="st31" d="M277.7,294.7c0.2-0.4,0.4-0.8,0.5-1.3h-0.5V294.7z"/>
		<path class="st31" d="M329.6,217.5h-1.3v1.3C328.8,218.3,329.2,217.9,329.6,217.5z"/>
		<path class="st77" d="M120.2,217.5c1.7,1,3.6,2.1,5.4,3.2v-3.2H120.2z"/>
		<path class="st77" d="M370.6,217.5h-16.8v10.8C359.6,224.1,365.3,220.5,370.6,217.5z"/>
		<path class="st77" d="M198.1,293.5c1.2,1.9,2.4,3.8,3.6,5.7v-5.7H198.1z"/>
		<path class="st77" d="M150.9,207.8v9.6h10.2C157.9,214.2,154.5,210.9,150.9,207.8z"/>
		<path class="st77" d="M201.6,271.9v21.6h10.9C209.3,286.3,205.6,279,201.6,271.9z"/>
		<path class="st77" d="M227,344.2h4.3c-1.3-4.5-2.7-9.2-4.3-13.9V344.2z"/>
		<path class="st77" d="M223,318.8h-10.4c4,7.9,7.9,16.3,11.5,25.4h3v-13.9C225.7,326.5,224.4,322.7,223,318.8z"/>
		<path class="st77" d="M311.2,268.1H303v10.4C305.7,274.9,308.4,271.5,311.2,268.1z"/>
		<path class="st77" d="M277.7,318.8v-24.1c-3.7,8.1-6.9,16.2-9.8,24.1H277.7z"/>
		<path class="st77" d="M227,351.8v-7.7h-3C225,346.7,226,349.2,227,351.8z"/>
		<path class="st77" d="M223,318.8c-3.1-8.3-6.5-16.8-10.4-25.4h-10.9v5.7c3.7,6.2,7.4,12.7,10.9,19.6H223z"/>
		<path class="st77" d="M335.6,242.8h-7.2v6.7C330.8,247.1,333.2,244.9,335.6,242.8z"/>
		<path class="st77" d="M176.3,234.2v8.5h6.7C180.8,239.9,178.6,237,176.3,234.2z"/>
		<path class="st77" d="M227,344.2v7.7c2.1,5.7,4.2,11.6,6.1,17.7h4.6c-1.7-7.9-3.9-16.4-6.5-25.4H227z"/>
		<path class="st77" d="M277.7,320c0.2-0.4,0.4-0.8,0.6-1.1h-0.6V320z"/>
		<path class="st77" d="M125.6,192.1V189c-7.9-5-16.3-9.4-25.4-13.3v16.5H125.6z"/>
		<path class="st77" d="M130.5,192.1c-1.6-1-3.2-2.1-4.9-3.1v3.1H130.5z"/>
		<path class="st77" d="M150.9,217.5h-25.4v3.2c7.9,4.9,16.5,10.9,25.4,18.4V217.5z"/>
		<path class="st77" d="M100.2,175.6c-6.3-2.7-12.9-5.2-19.7-7.3l3.2,23.8h16.5V175.6z"/>
		<path class="st77" d="M328.4,218.7v24.1h7.2c6.2-5.5,12.3-10.3,18.2-14.5v-10.8h-24.1C329.2,217.9,328.8,218.3,328.4,218.7z"/>
		<path class="st77" d="M353.7,217.5v-20.7c-8.7,6.3-16.7,13.3-24.1,20.7H353.7z"/>
		<path class="st77" d="M125.6,217.5H151v-9.6c-6.4-5.6-13.2-10.9-20.5-15.7h-4.9V217.5z"/>
		<path class="st77" d="M83.7,192.1l1.4,10.3c0,0,5.7,1.3,15.1,5.1V192L83.7,192.1L83.7,192.1z"/>
		<path class="st77" d="M407,192.1l3.2-23.8c-2,0.6-3.9,1.3-5.9,1.9v21.9H407z"/>
		<path class="st77" d="M125.6,217.5v-25.4h-25.4v15.5c5.5,2.3,12.3,5.5,20,9.8H125.6z"/>
		<path class="st77" d="M404.4,202.7c0.8-0.2,1.3-0.3,1.3-0.3l1.4-10.3h-2.6V202.7z"/>
		<path class="st77" d="M379,192.1h25.4v-21.9c-8.9,3.1-17.4,6.7-25.4,10.8V192.1z"/>
		<path class="st77" d="M353.7,196.7v20.7h16.8c3-1.7,5.8-3.2,8.5-4.6v-20.8h-18.8C358,193.6,355.9,195.1,353.7,196.7z"/>
		<path class="st77" d="M379,192.1v-11c-6.6,3.4-12.8,7.1-18.8,11H379z"/>
		<path class="st77" d="M379,192.1v20.8c12.7-6.5,22.1-9.2,25.4-10.1v-10.7H379z"/>
		<path class="st77" d="M278.2,293.5h14.5c3.4-5.2,6.8-10.2,10.3-14.9v-10.4h-11.7C286.5,276.5,282.1,285,278.2,293.5z"/>
		<path class="st77" d="M237.7,369.5h-4.6c2.6,8,4.9,16.5,7.1,25.4h2.4C241.5,387.6,239.9,379,237.7,369.5z"/>
		<path class="st77" d="M252.3,372.8c-1.7,8.2-3.1,15.6-4.1,22h2.4c0.5-2.3,1.1-4.5,1.7-6.8L252.3,372.8L252.3,372.8z"/>
		<path class="st77" d="M155.2,242.8h21.1v-8.5c-4.7-5.8-9.7-11.4-15.1-16.8H151v21.7C152.3,240.3,153.8,241.5,155.2,242.8z"/>
		<path class="st77" d="M245.4,416.8c-0.4-4-1.1-11.7-2.8-21.9h-2.4c1.9,7.5,3.6,15.2,5.1,23.2c-0.1,1.3-0.2,2-0.2,2
			c0.1-0.4,0.2-0.9,0.3-1.4c0.1,0.4,0.2,0.9,0.3,1.4c0,0-0.1-0.7-0.2-2c1.5-8,3.2-15.8,5.1-23.2h-2.4
			C246.6,405.1,245.8,412.7,245.4,416.8z"/>
		<path class="st77" d="M259.5,344.2c-2.6,8.9-4.8,17.4-6.5,25.4h4.6c2.8-8.9,5.9-17.3,9.1-25.4H259.5z"/>
		<path class="st77" d="M267.8,318.8c-3.2,8.7-5.9,17.2-8.3,25.4h7.3c3.4-8.5,7.1-16.6,10.9-24.2v-1.1L267.8,318.8L267.8,318.8z"/>
		<path class="st77" d="M277.7,318.8h0.6c4.6-9.1,9.5-17.6,14.5-25.4h-14.5c-0.2,0.4-0.4,0.8-0.5,1.3L277.7,318.8L277.7,318.8z"/>
		<path class="st77" d="M201.6,293.5v-21.6c-0.7-1.3-1.4-2.5-2.1-3.7h-20c6.3,7.6,12.5,16,18.5,25.4L201.6,293.5L201.6,293.5z"/>
		<path class="st77" d="M303,249.5v18.6h8.2c5.7-6.9,11.4-13.1,17.2-18.6v-6.7h-20.5C306.2,245,304.6,247.3,303,249.5z"/>
		<path class="st77" d="M252.3,372.8v15.3c1.7-6.4,3.5-12.6,5.4-18.6h-4.6C252.8,370.6,252.6,371.7,252.3,372.8z"/>
		<path class="st77" d="M176.3,264.3v-21.5h-21.1C162.1,249,169.2,256.1,176.3,264.3z"/>
		<path class="st77" d="M328.4,242.8v-24.1c-7.5,7.7-14.3,15.7-20.5,24.1H328.4z"/>
		<path class="st77" d="M303,268.1v-18.6c-4.2,6.1-8.1,12.3-11.7,18.6H303z"/>
		<path class="st77" d="M179.6,268.1h20c-5-8.6-10.5-17.1-16.6-25.4h-6.7v21.5C177.4,265.5,178.5,266.8,179.6,268.1z"/>
	</g>
	<g class="st76">
		<path class="st77" d="M100.2,166.8h25.4v-17.3c-4.4-2.8-8.9-5.5-13.6-8h-11.8V166.8z"/>
		<path class="st77" d="M227,292.1v1.4h0.4C227.3,293,227.1,292.6,227,292.1z"/>
		<path class="st77" d="M244.7,374.2c0,0-0.1-1.6-0.4-4.6h-0.4C244.1,371,244.4,372.6,244.7,374.2z"/>
		<path class="st77" d="M125.6,179.3v-12.6h-25.4l0,0C107.3,169.6,116,173.6,125.6,179.3z"/>
		<path class="st77" d="M176.3,195.6v21.9H192C187.2,210,182,202.7,176.3,195.6z"/>
		<path class="st77" d="M112,141.4c-3.8-2-7.7-4-11.8-5.8v5.8H112z"/>
		<path class="st77" d="M230.5,318.8c2.7,8,5.2,16.5,7.5,25.4h2.4c-1.4-7.4-3.2-16-5.6-25.4H230.5z"/>
		<path class="st77" d="M150.9,168.8v23.3h22.5C166.6,183.9,159.1,176.1,150.9,168.8z"/>
		<path class="st77" d="M100.2,166.8L100.2,166.8v-25.4H79.1l2.7,19.5C81.8,160.9,88.9,162.2,100.2,166.8z"/>
		<path class="st77" d="M201.6,233.6v9.2h4.9C204.9,239.7,203.3,236.6,201.6,233.6z"/>
		<path class="st77" d="M100.2,135.6c-7.3-3.3-15-6.3-23.1-8.8l2,14.6h21.2V135.6z"/>
		<path class="st77" d="M125.6,149.4v17.3h23.1C141.5,160.5,133.8,154.7,125.6,149.4z"/>
		<path class="st77" d="M150.9,192.1h-6.4c2.1,1.6,4.3,3.3,6.4,5.1V192.1z"/>
		<path class="st77" d="M227,293.5v-1.4c-2.6-7.8-5.5-15.9-8.9-24h-9.6c4.3,7.9,8.4,16.3,12.3,25.4H227z"/>
		<path class="st77" d="M192.8,242.8h8.9v-9.2c-3-5.4-6.2-10.8-9.6-16.1h-15.7v4.3C181.9,228.1,187.4,235.1,192.8,242.8z"/>
		<path class="st77" d="M176.3,217.5h-3.9c1.3,1.4,2.6,2.8,3.9,4.3V217.5z"/>
		<path class="st77" d="M100.2,166.8L100.2,166.8L100.2,166.8L100.2,166.8z"/>
		<path class="st77" d="M208.5,268.1h9.7c-3.4-8.4-7.3-16.8-11.6-25.4h-4.9v13.5C204,260.1,206.3,264,208.5,268.1z"/>
		<path class="st77" d="M201.6,242.8h-8.9c3,4.3,6,8.8,8.9,13.5V242.8z"/>
		<path class="st77" d="M172.4,217.5h3.9v-21.9c-0.9-1.1-1.9-2.4-2.8-3.5H151v5.1C158,203,165.2,209.7,172.4,217.5z"/>
		<path class="st77" d="M230.5,318.8h4.3c-2-8-4.4-16.5-7.3-25.4H227v15.5C228.2,312.2,229.3,315.5,230.5,318.8z"/>
		<path class="st77" d="M227,293.5h-6.2c2.1,5,4.2,10.2,6.2,15.5V293.5z"/>
		<path class="st77" d="M144.5,192.1h6.4v-23.3c-0.8-0.7-1.5-1.4-2.3-2h-23.1v12.6C131.6,182.9,138,187.1,144.5,192.1z"/>
		<path class="st77" d="M238,344.2c2.1,8.1,4,16.5,5.8,25.4h0.4c-0.5-5-1.7-13.9-3.9-25.4H238z"/>
	</g>
	<g class="st76">
		<path class="st52" d="M353.7,40h-15.3c5.2,2.2,10.3,4.5,15.3,7.1V40z"/>
		<path class="st52" d="M429.7,83v7.7h6.9C434.4,88.1,432.1,85.5,429.7,83z"/>
		<path class="st52" d="M404.4,65.4h-20.8c7.3,5.2,14.2,10.9,20.8,16.9V65.4z"/>
		<path class="st52" d="M74.9,79c-3.7,3.8-7.3,7.7-10.8,11.8h10.8V79z"/>
		<path class="st52" d="M100.2,56.4c-3.7,2.9-7.4,5.9-10.9,9h10.9V56.4z"/>
		<path class="st52" d="M455.1,369.5v-18.4c-3.1,6.3-6.5,12.4-10.1,18.4H455.1z"/>
		<path class="st52" d="M49.5,109.5c-1.5,2.2-3,4.4-4.5,6.6h4.5V109.5z"/>
		<path class="st52" d="M399.3,445.6H379v13.9C386,455.2,392.8,450.5,399.3,445.6z"/>
		<path class="st52" d="M448.9,394.9h-19.1V418C436.6,410.7,443,403,448.9,394.9z"/>
		<path class="st52" d="M49.5,141.4v1c0.2-0.3,0.3-0.7,0.5-1H49.5z"/>
		<path class="st52" d="M35.8,369.5c4.2,7.6,8.8,14.9,13.8,22v-22H35.8z"/>
		<path class="st52" d="M427.6,420.2h-23.2v21.4C412.6,435,420.4,427.8,427.6,420.2z"/>
		<path class="st52" d="M125.6,445.6h6.6c-2.2-1.4-4.4-2.7-6.6-4.2V445.6z"/>
		<path class="st52" d="M125.6,461.8v-16.2h-24.1C109.2,451.4,117.2,456.9,125.6,461.8z"/>
		<path class="st52" d="M277.7,14.7V6.6c-8.3-0.9-16.8-1.4-25.4-1.5v9.6H277.7z"/>
		<path class="st52" d="M455.1,369.5h10c4.5-8.1,8.6-16.6,12.2-25.4h-18.9c-1,2.4-2.2,4.7-3.3,7V369.5z"/>
		<path class="st52" d="M353.7,47.1c8.8,4.5,17.3,9.5,25.4,15V41.5c-0.8-0.5-1.6-1-2.4-1.4h-23L353.7,47.1L353.7,47.1z"/>
		<path class="st52" d="M455.1,385.9c3.6-5.3,6.8-10.8,10-16.4h-10V385.9z"/>
		<path class="st52" d="M444.9,369.5c-4.6,7.6-9.7,14.9-15.2,21.9v3.5h19.1c2.1-3,4.2-5.9,6.2-9v-16.4H444.9z"/>
		<path class="st52" d="M353.7,40V27.8c-8.2-3.8-16.7-7.2-25.4-10.1v18.4c3.4,1.2,6.7,2.5,10,3.9L353.7,40z"/>
		<path class="st52" d="M376.7,40c-7.4-4.4-15.1-8.5-23-12.2V40H376.7z"/>
		<path class="st52" d="M474.4,293.5h6v-25.4h-2.6C477.1,276.7,476,285.2,474.4,293.5z"/>
		<path class="st52" d="M476.1,217.5h4.4v-25.4h-9.5C473.1,200.4,474.8,208.8,476.1,217.5z"/>
		<path class="st52" d="M480.4,192.1v-25.4h-17.8c3.2,8.2,6,16.7,8.3,25.4H480.4z"/>
		<path class="st52" d="M478.3,242.8h2.1v-25.4h-4.4C477.3,225.8,478,234.2,478.3,242.8z"/>
		<path class="st52" d="M478.4,250.5c0,6-0.2,11.8-0.7,17.7h2.6v-25.4h-2.1C478.4,245.3,478.4,247.9,478.4,250.5z"/>
		<path class="st52" d="M303,28.5V14.7h-25.4v9.3C286.2,25.1,294.7,26.6,303,28.5z"/>
		<path class="st52" d="M468,318.8h12.4v-25.4h-6C472.8,302.1,470.6,310.6,468,318.8z"/>
		<path class="st52" d="M22.4,250.5c0-2.6,0.1-5.1,0.1-7.7H5.2c-0.1,2.6-0.1,5.1-0.1,7.7c0,6,0.2,11.8,0.7,17.7h17.4
			C22.6,262.3,22.4,256.4,22.4,250.5z"/>
		<path class="st52" d="M277.7,24.1v-9.3h-25.4v7.8C260.9,22.5,269.4,23.1,277.7,24.1z"/>
		<path class="st52" d="M24.2,293.5H8.8c1.5,8.6,3.5,17.1,5.9,25.4h9.6V293.5z"/>
		<path class="st52" d="M24.2,221.3v-3.8h-17c-1.1,8.3-1.8,16.8-2.1,25.4h17.4C22.8,235.5,23.3,228.3,24.2,221.3z"/>
		<path class="st52" d="M24.2,192.1H12c-2,8.3-3.6,16.7-4.8,25.4h17V192.1z"/>
		<path class="st52" d="M24.2,279.7c-0.5-3.8-0.9-7.7-1.2-11.5H5.6c0.6,8.6,1.6,17.1,3.1,25.4h15.5V279.7z"/>
		<path class="st52" d="M24.2,318.8h-9.6c2.5,8.6,5.5,17.1,8.9,25.4h0.7V318.8z"/>
		<path class="st52" d="M250.4,22.5c0.7,0,1.3,0,1.9,0v-7.8h-25.4v9C234.7,22.9,242.5,22.5,250.4,22.5z"/>
		<path class="st52" d="M227,14.7h-25.4v13c8.3-1.8,16.7-3.2,25.4-4V14.7z"/>
		<path class="st52" d="M23.5,344.2c0.2,0.5,0.4,1.1,0.7,1.6v-1.6H23.5z"/>
		<path class="st52" d="M49.5,369.5v-10.9c-2.5-4.7-4.9-9.5-7.1-14.4H24.2v1.6c3.4,8.1,7.3,16,11.5,23.7L49.5,369.5L49.5,369.5z"/>
		<path class="st52" d="M480.4,268.1h14.8c0.4-5.9,0.7-11.7,0.7-17.7c0-2.6-0.1-5.1-0.1-7.7h-15.3L480.4,268.1L480.4,268.1z"/>
		<path class="st52" d="M24.2,166.8h-4.5c-3,8.3-5.6,16.7-7.7,25.4h12.2V166.8z"/>
		<path class="st52" d="M468,318.8c-2.7,8.7-6,17.2-9.7,25.4h18.9c1.1-2.6,2.1-5.3,3.2-8v-17.3L468,318.8L468,318.8z"/>
		<path class="st52" d="M480.4,242.8h15.3c-0.3-8.6-1-17-2.1-25.4h-13.2L480.4,242.8L480.4,242.8z"/>
		<path class="st52" d="M480.4,217.5h13.2c-1.1-8.6-2.7-17.1-4.8-25.4h-8.4L480.4,217.5L480.4,217.5z"/>
		<path class="st52" d="M480.4,318.8h5.7c2.4-8.3,4.4-16.7,5.9-25.4h-11.6V318.8z"/>
		<path class="st52" d="M480.4,336.2c2.1-5.7,4-11.5,5.7-17.3h-5.7V336.2z"/>
		<path class="st52" d="M480.4,293.5h11.6c1.5-8.3,2.5-16.8,3.1-25.4h-14.8V293.5z"/>
		<path class="st52" d="M411.5,65.4c-2.4-2-4.7-4-7.1-6v6H411.5z"/>
		<path class="st52" d="M404.4,65.4v-6c-8-6.5-16.5-12.5-25.4-17.9v20.7c1.5,1,3.1,2.1,4.5,3.2H404.4z"/>
		<path class="st52" d="M481.1,166.8c-0.2-0.7-0.5-1.3-0.7-2v2H481.1z"/>
		<path class="st52" d="M455.1,141.4v8.4c2.7,5.5,5.2,11.2,7.5,17h17.8v-2c-3-8-6.3-15.8-10.1-23.4H455.1z"/>
		<path class="st52" d="M480.4,192.1h8.4c-2.1-8.6-4.7-17.1-7.7-25.4h-0.7V192.1z"/>
		<path class="st52" d="M455.1,149.8v-8.4h-4.4C452.3,144.2,453.7,147,455.1,149.8z"/>
		<path class="st52" d="M434.6,116.1h20.4v-1c-5.6-8.5-11.8-16.6-18.4-24.3h-6.9v18.9C431.4,111.7,433.1,113.9,434.6,116.1z"/>
		<path class="st52" d="M455.7,116.1c-0.2-0.3-0.4-0.7-0.7-1v1H455.7z"/>
		<path class="st52" d="M434.6,116.1c5.9,8,11.3,16.5,16.1,25.4h4.4v-25.4H434.6z"/>
		<path class="st52" d="M455.1,141.4h15.2c-4.4-8.7-9.2-17.2-14.5-25.4h-0.7V141.4z"/>
		<path class="st52" d="M429.7,90.7h-16.6c5.9,6,11.4,12.3,16.6,18.9V90.7z"/>
		<path class="st52" d="M117.2,65.4h-17v13.5C105.7,74.1,111.3,69.6,117.2,65.4z"/>
		<path class="st52" d="M150.9,40h-25.4v19.6c8.1-5.3,16.6-10.1,25.4-14.4V40z"/>
		<path class="st52" d="M87.7,90.7H74.9v14.2C79,99.9,83.2,95.2,87.7,90.7z"/>
		<path class="st52" d="M162.5,40H151v5.2C154.7,43.4,158.6,41.7,162.5,40z"/>
		<path class="st52" d="M49.5,116.1h16.6c2.8-3.8,5.7-7.5,8.7-11.2V90.7H64.1c-5.1,6-10,12.2-14.6,18.8V116.1z"/>
		<path class="st52" d="M74.9,79v11.8h12.7c4-4.1,8.2-8.1,12.6-11.9V65.3H89.3C84.3,69.7,79.5,74.3,74.9,79z"/>
		<path class="st52" d="M303,14.7v-3.9c-8.3-1.8-16.7-3.2-25.4-4.2v8.1H303z"/>
		<path class="st52" d="M353.7,473.1c1.6-0.7,3.2-1.5,4.7-2.2h-4.7V473.1z"/>
		<path class="st52" d="M353.7,453.8v17.1h4.7c7.1-3.5,13.9-7.3,20.6-11.4v-13.9h-10.4C363.7,448.5,358.8,451.3,353.7,453.8z"/>
		<path class="st52" d="M379,445.6v-6.7c-3.4,2.4-6.9,4.6-10.4,6.7H379z"/>
		<path class="st52" d="M328.4,470.9v12.4c8.7-2.9,17.1-6.3,25.4-10.1v-2.2H328.4z"/>
		<path class="st52" d="M309.1,470.9c-2,0.5-4,1-6.1,1.5v17.8c8.6-1.9,17.1-4.2,25.4-7v-12.4H309.1z"/>
		<path class="st52" d="M277.7,476.9v17.5c8.6-0.9,17.1-2.4,25.4-4.2v-17.8C294.7,474.4,286.2,475.9,277.7,476.9z"/>
		<path class="st52" d="M74.9,396.1c-0.3-0.4-0.7-0.8-1-1.3H52c6.5,8.9,13.6,17.4,21.2,25.4h1.7V396.1z"/>
		<path class="st52" d="M176.3,34.8c8.3-2.8,16.7-5.2,25.4-7.1v-13h-19.4c-2,0.6-4,1.2-6,1.8V34.8z"/>
		<path class="st52" d="M252.3,478.5v17.3c8.6-0.1,17-0.5,25.4-1.5v-17.5C269.4,477.9,260.9,478.4,252.3,478.5z"/>
		<path class="st52" d="M379,438.8v6.8h20.3c1.7-1.3,3.4-2.6,5.1-4v-21.4h-1.7C395.3,426.9,387.3,433.1,379,438.8z"/>
		<path class="st52" d="M73.2,420.2c0.6,0.6,1.1,1.2,1.7,1.8v-1.8H73.2z"/>
		<path class="st52" d="M100.2,444.6v-22.5c-0.7-0.7-1.4-1.3-2.1-1.9H74.9v1.8C82.8,430.1,91.3,437.6,100.2,444.6z"/>
		<path class="st52" d="M404.4,420.2v-1.5c-0.5,0.5-1.1,1-1.7,1.5H404.4z"/>
		<path class="st52" d="M328.4,470.9h25.4v-17.1c-8.2,4.2-16.6,7.8-25.4,11V470.9z"/>
		<path class="st52" d="M74.9,396.1v24.1h23.2C89.8,412.8,82,404.7,74.9,396.1z"/>
		<path class="st52" d="M125.6,445.6v-4.2c-8.9-5.9-17.4-12.2-25.4-19.2v22.5c0.4,0.3,0.8,0.7,1.3,1L125.6,445.6L125.6,445.6z"/>
		<path class="st52" d="M176.3,470.9h15.4c-5.2-1.4-10.3-3-15.4-4.7V470.9z"/>
		<path class="st52" d="M309.1,470.9h19.2v-6C322.1,467.2,315.7,469.1,309.1,470.9z"/>
		<path class="st52" d="M191.7,470.9h-15.4v13.6c8.3,2.6,16.7,4.8,25.4,6.6v-17.7C198.3,472.6,195,471.8,191.7,470.9z"/>
		<path class="st52" d="M150.9,455.7c-6.4-3.1-12.7-6.5-18.7-10.2h-6.6v16.3c5.5,3.2,11.1,6.3,16.8,9.1h8.5V455.7z"/>
		<path class="st52" d="M201.6,473.3V491c8.3,1.7,16.8,3,25.4,3.7v-17.4C218.4,476.5,209.9,475.1,201.6,473.3z"/>
		<path class="st52" d="M250.4,478.5c-7.9,0-15.7-0.4-23.4-1.2v17.4c7.7,0.7,15.5,1.1,23.4,1.1c0.7,0,1.3,0,1.9,0v-17.3
			C251.7,478.5,251,478.5,250.4,478.5z"/>
		<path class="st52" d="M150.9,470.9v4c8.2,3.7,16.7,6.8,25.4,9.6v-13.6L150.9,470.9L150.9,470.9z"/>
		<path class="st52" d="M142.4,470.9c2.8,1.4,5.7,2.7,8.5,4v-4H142.4z"/>
		<path class="st52" d="M24.2,318.8v25.4h18.2c-3.7-8.2-6.9-16.7-9.7-25.4H24.2z"/>
		<path class="st52" d="M429.7,394.9v-3.5c-0.9,1.1-1.9,2.4-2.8,3.5H429.7z"/>
		<path class="st52" d="M100.2,65.4h17c2.7-2,5.6-3.9,8.4-5.8V40h-1.5c-8.3,5-16.2,10.4-23.9,16.3V65.4z"/>
		<path class="st52" d="M404.4,418.7v1.5h23.2c0.7-0.7,1.4-1.5,2.1-2.2v-23.1h-2.8C420,403.4,412.4,411.3,404.4,418.7z"/>
		<path class="st52" d="M49.5,358.6v10.9h6.3C53.6,366,51.6,362.3,49.5,358.6z"/>
		<path class="st52" d="M24.2,155.2c-1.6,3.8-3.1,7.7-4.5,11.6h4.5V155.2z"/>
		<path class="st52" d="M73.9,394.9c-6.6-8-12.6-16.5-18-25.4h-6.3v22c0.8,1.1,1.6,2.2,2.4,3.3L73.9,394.9L73.9,394.9z"/>
		<path class="st52" d="M125.6,39.1c-0.5,0.3-1,0.6-1.5,0.9h1.5V39.1z"/>
		<path class="st52" d="M38.2,166.8c3.3-8.4,7.1-16.5,11.3-24.4v-1h-19c-2.2,4.5-4.3,9.1-6.3,13.7v11.6L38.2,166.8L38.2,166.8z"/>
		<path class="st52" d="M150.9,40V26.1c-8.7,3.9-17.2,8.3-25.4,13.1V40L150.9,40z"/>
		<path class="st52" d="M162.5,40c4.5-1.9,9.2-3.7,13.8-5.2V16.5c-8.6,2.7-17.1,6-25.4,9.6v13.9L162.5,40L162.5,40z"/>
		<path class="st52" d="M50.1,141.4c4.8-8.8,10.2-17.3,16.1-25.4H49.5v25.4H50.1z"/>
		<path class="st52" d="M49.5,141.4V116h-4.5c-5.3,8.1-10.2,16.6-14.5,25.4H49.5z"/>
		<path class="st52" d="M252.3,14.7V5.1c-0.7,0-1.3,0-1.9,0c-7.9,0-15.7,0.4-23.4,1.1v8.5H252.3z"/>
		<path class="st52" d="M150.9,455.7v15.1h25.4v-4.7C167.6,463.2,159.1,459.7,150.9,455.7z"/>
		<path class="st52" d="M404.4,82.3c3,2.7,5.9,5.5,8.7,8.4h16.6v-7.8c-5.8-6.2-11.9-12-18.2-17.6h-7.1L404.4,82.3L404.4,82.3z"/>
		<path class="st52" d="M201.6,9.9c-6.6,1.3-13,2.9-19.4,4.8h19.4V9.9z"/>
		<path class="st52" d="M227,14.7V6.2c-8.6,0.8-17.1,2.1-25.4,3.7v4.8H227z"/>
		<path class="st52" d="M318.6,14.7c-5.1-1.5-10.3-2.8-15.6-3.9v3.9H318.6z"/>
		<path class="st52" d="M26.4,293.5h-2.2v25.4h8.6C30.2,310.6,28.1,302.1,26.4,293.5z"/>
		<path class="st52" d="M24.2,217.5v3.8c0.2-1.3,0.3-2.6,0.5-3.8H24.2z"/>
		<path class="st52" d="M24.2,279.7v13.8h2.2C25.5,288.9,24.8,284.3,24.2,279.7z"/>
		<path class="st52" d="M29.9,192.1h-5.7v25.4h0.5C26,208.8,27.7,200.4,29.9,192.1z"/>
		<path class="st52" d="M303,28.5c8.6,2,17.1,4.6,25.4,7.5V17.7c-3.2-1.1-6.5-2.1-9.8-3.1H303V28.5z"/>
		<path class="st52" d="M38.2,166.8h-14v25.4h5.7C32.2,183.4,34.9,175,38.2,166.8z"/>
	</g>
	<g class="st76">
		<path class="st77" d="M252.3,335.3v8.9h0.7c2.3-8.9,4.9-17.3,7.5-25.4h-4.4C254.6,324.7,253.4,330.2,252.3,335.3z"/>
		<path class="st77" d="M250.5,344.2h1.7v-8.9C251.7,338.4,251.1,341.4,250.5,344.2z"/>
		<path class="st77" d="M282.5,268.1h-4.8v9.2C279.2,274.2,280.8,271.1,282.5,268.1z"/>
		<path class="st77" d="M328.4,179.8c-3.8,4-7.5,8.1-11,12.2h11V179.8z"/>
		<path class="st77" d="M390.6,166.8H379v5.1C383.2,169.8,387.1,168.1,390.6,166.8z"/>
		<path class="st77" d="M353.7,157.4c-4,3-7.9,6.1-11.6,9.3h11.6V157.4z"/>
		<path class="st77" d="M246.3,374.2c0.3-1.6,0.6-3.1,0.9-4.6h-0.4C246.4,372.5,246.3,374.2,246.3,374.2z"/>
		<path class="st77" d="M252.3,346.7c0.2-0.8,0.4-1.6,0.7-2.5h-0.7V346.7z"/>
		<path class="st77" d="M277.7,256.7c-1.7,3.8-3.4,7.7-4.9,11.5h4.9V256.7z"/>
		<path class="st77" d="M260.5,318.8c3-8.9,6.2-17.4,9.7-25.4h-6.7c-2.9,8.9-5.3,17.4-7.3,25.4H260.5z"/>
		<path class="st77" d="M303,211.1c-1.4,2.1-2.8,4.2-4.2,6.3h4.2V211.1z"/>
		<path class="st77" d="M379,171.9v-5.1h-25.4v20C362.9,180.4,371.4,175.6,379,171.9z"/>
		<path class="st77" d="M277.7,268.1h4.8c5-9.2,10.3-17.6,15.7-25.4h-13.8c-2.4,4.6-4.6,9.2-6.6,13.8L277.7,268.1L277.7,268.1z"/>
		<path class="st77" d="M379,141.4v25.4h11.5c5.9-2.4,10.6-3.8,13.8-4.7v-20.7H379z"/>
		<path class="st77" d="M270.2,293.5c2.4-5.6,4.9-11,7.5-16.1v-9.2h-4.9c-3.5,8.6-6.6,17.2-9.2,25.4L270.2,293.5L270.2,293.5z"/>
		<path class="st77" d="M318.6,217.5H303v18.6C308.1,229.3,313.3,223.1,318.6,217.5z"/>
		<path class="st77" d="M298.2,242.8c1.6-2.3,3.2-4.5,4.9-6.7v-18.6h-4.2c-5.4,8.3-10.2,16.8-14.5,25.4L298.2,242.8L298.2,242.8z"/>
		<path class="st77" d="M328.4,179.8v12.2h18c2.5-1.9,4.9-3.7,7.3-5.4v-20h-11.6C337.3,171,332.7,175.3,328.4,179.8z"/>
		<path class="st77" d="M346.3,192.1h-18v15.4C334.4,201.7,340.5,196.6,346.3,192.1z"/>
		<path class="st77" d="M252.3,344.2h-1.7c-2.1,11.5-3.3,20.3-3.8,25.4h0.4c1.6-7.9,3.3-15.5,5.1-22.9L252.3,344.2L252.3,344.2z"/>
		<path class="st77" d="M303,217.5h15.5c3.3-3.6,6.6-6.8,9.8-10v-15.4h-11c-5.1,6.2-10,12.5-14.4,19L303,217.5L303,217.5z"/>
		<path class="st77" d="M353.7,166.8h25.4v-25.4h-0.3c-9,4.8-17.3,10.2-25.1,16V166.8z"/>
		<path class="st77" d="M379,141.3c-0.1,0.1-0.2,0.1-0.3,0.2h0.3V141.3z"/>
		<path class="st77" d="M411.7,141.4l2-14.6c-3.2,1-6.2,2-9.3,3.2v11.5L411.7,141.4L411.7,141.4z"/>
		<path class="st77" d="M404.4,162.1c3-0.8,4.7-1.1,4.7-1.1l2.6-19.5h-7.3L404.4,162.1L404.4,162.1z"/>
		<path class="st77" d="M404.4,141.4v-11.5c-8.9,3.3-17.4,7.1-25.4,11.3v0.2H404.4z"/>
	</g>
</g>
<g id="section_illus">
	<rect id="browser" class="st78" width="500" height="363.8"/>
	<g id="address_bar">
		<rect class="st78" width="499.4" height="19.5"/>
		<line class="st79" x1="0" y1="19.5" x2="499.4" y2="19.5"/>
		<circle class="st3" cx="11.5" cy="9.7" r="2.6"/>
		<circle class="st80" cx="22" cy="9.7" r="2.6"/>
		<circle class="st80" cx="32.4" cy="9.7" r="2.6"/>
	</g>
</g>
<g id="sonnam_bg">
	<polygon id="sonnam_bglg" class="st2" points="1028,45 1018.8,54.2 1025.8,68.3 1024.4,69.8 1013.8,59.2 1013.8,59.2 
		939.1,-15.4 862.1,61.6 873.7,84.7 871.3,87.1 854,69.8 854,69.8 843.5,59.3 836.3,66.4 814.9,45 768.3,91.6 775.4,105.8 
		773.9,107.2 749,82.3 688.6,142.7 849.4,142.7 860.4,142.7 1067.3,142.7 1075.8,142.7 1125.7,142.7 	"/>
	<g id="snbg_grid">
		<polyline id="XMLID_255_" class="st81" points="907.2,-75.8 1125.7,142.7 907.2,361.3 688.6,142.7 907.2,-75.8 		"/>
		
			<rect id="XMLID_254_" x="827.3" y="30.9" transform="matrix(0.7071 -0.7071 0.7071 0.7071 174.1219 705.8646)" class="st81" width="223.6" height="223.6"/>
		
			<rect id="XMLID_253_" x="958.9" y="73.6" transform="matrix(0.7071 -0.7071 0.7071 0.7071 200.1499 768.7017)" class="st81" width="138.2" height="138.2"/>
		
			<rect id="XMLID_252_" x="745.8" y="73.6" transform="matrix(0.7071 -0.7071 0.7071 0.7071 137.733 618.0139)" class="st81" width="138.2" height="138.2"/>
		
			<rect id="XMLID_251_" x="706.3" y="100" transform="matrix(0.7071 -0.7071 0.7071 0.7071 118.4448 571.4481)" class="st81" width="85.4" height="85.4"/>
		<circle id="XMLID_250_" class="st81" cx="797" cy="47.9" r="10.1"/>
		<line id="XMLID_249_" class="st81" x1="939.1" y1="-65.8" x2="939.1" y2="350.6"/>
		<line id="XMLID_248_" class="st81" x1="652.5" y1="142.7" x2="1152.5" y2="142.7"/>
		
			<rect id="XMLID_247_" x="1030.9" y="62.2" transform="matrix(0.7071 -0.7071 0.7071 0.7071 253.8177 757.2501)" class="st81" width="20.1" height="20.1"/>
		
			<rect id="XMLID_246_" x="753.2" y="72.3" transform="matrix(0.7071 -0.7071 0.7071 0.7071 165.3293 563.8185)" class="st81" width="20.1" height="20.1"/>
		
			<rect id="XMLID_245_" x="836.7" y="66.7" transform="matrix(0.7071 -0.7071 0.7071 0.7071 193.7354 621.2552)" class="st81" width="20.1" height="20.1"/>
		
			<rect id="XMLID_244_" x="784.4" y="83.7" transform="matrix(0.7071 0.7071 -0.7071 0.7071 347.9854 -554.6141)" class="st81" width="118.1" height="118.1"/>
		<g id="XMLID_241_">
			<polygon id="XMLID_243_" class="st81" points="845.8,61.6 878.5,94.2 862.1,61.6 			"/>
			
				<rect id="XMLID_242_" x="868.4" y="84.2" transform="matrix(0.7071 -0.7071 0.7071 0.7071 190.663 648.759)" class="st81" width="20.1" height="20.1"/>
		</g>
		<g id="XMLID_238_">
			<polygon id="XMLID_240_" class="st81" points="1035.3,26.8 1068,59.5 1051.7,26.8 			"/>
			
				<rect id="XMLID_239_" x="1057.9" y="49.4" transform="matrix(0.7071 -0.7071 0.7071 0.7071 270.7456 772.6012)" class="st81" width="20.1" height="20.1"/>
		</g>
		<polygon id="XMLID_237_" class="st81" points="1008.7,54.1 1028.8,74.2 1018.7,54.1 		"/>
		<polygon id="XMLID_236_" class="st81" points="758.2,91.6 778.3,111.7 768.3,91.6 		"/>
		
			<rect id="XMLID_116_" x="772.1" y="105.4" transform="matrix(0.7071 0.7071 -0.7071 0.7071 306.9405 -517.6622)" class="st81" width="12.5" height="12.5"/>
		
			<rect id="XMLID_115_" x="1022.5" y="68" transform="matrix(0.7071 0.7071 -0.7071 0.7071 353.816 -705.7252)" class="st81" width="12.5" height="12.5"/>
	</g>
</g>
<g id="_fullstack">
	<g id="ft_desk">
		<g id="sk6">
			<g id="sk62">
				<text transform="matrix(1 0 0 1 480.1777 314.6762)" >SQL, etc...</text>
			</g>
			<text transform="matrix(1 0 0 1 454.4072 300.6762)" >Back-end Dev</text>
		</g>
		<line id="skl6"  x1="502.5" y1="443.2" x2="502.2" y2="323.1"/>
		<line id="allskl3"  x1="437.2" y1="442.2" x2="623.7" y2="442.2"/>
		<line id="allskl2"  x1="-107.9" y1="442.2" x2="10.1" y2="442.2"/>
		<circle id="sks6"  cx="502.5" cy="442" r="4"/>
	</g>
	<g id="ft_mb">
		<rect id="skb1" x="35.7" y="365.7"  width="15.3" height="70.7"/>
		<rect id="skb2" x="209" y="381.9"  width="15.3" height="50.5"/>
		<rect id="skb3" x="123" y="328"  width="15.3" height="107.3"/>
		<rect id="skb4" x="309.3" y="328"  width="15.3" height="107.3"/>
		<rect id="skb5" x="420.5" y="266.8"  width="15.3" height="166"/>
		<text id="sk1" transform="matrix(1 0 0 1 8.4089 359.8625)" >Branding</text>
		<g id="sk2">
			<g id="sk22">
				<text transform="matrix(1 0 0 1 100.0452 320.0979)" >Landing Page</text>
			</g>
			<text transform="matrix(1 0 0 1 55.3486 303.3984)" >Campaigns validation</text>
		</g>
		<g id="sk3">
			<text transform="matrix(1 0 0 1 171.8871 360.9674)" >UX Research</text>
			<text transform="matrix(1 0 0 1 169.8712 377.1846)" >research, wireframing</text>
		</g>
		<line id="skl1"  x1="38.7" y1="367.7" x2="38.7" y2="439"/>
		<line id="skl2"  x1="127.1" y1="331.9" x2="127.1" y2="443.2"/>
		<line id="skl3"  x1="212.8" y1="386.8" x2="212.9" y2="443.2"/>
		<g id="sk4">
			<text transform="matrix(1 0 0 1 282.9077 302.5678)" >UI Design</text>
			<text transform="matrix(1 0 0 1 261.3945 320.2602)" >visual, high-fidelity comps</text>
		</g>
		<line id="skl4"  x1="312.9" y1="332.8" x2="312.9" y2="443.2"/>
		<g id="sk5">
			<text transform="matrix(1 0 0 1 375.0948 243.1827)" >Front-End Dev</text>
			<text transform="matrix(1 0 0 1 366.5899 259.8575)" >HTML/CSS/JS, prototyping</text>
		</g>
		<line id="skl5"  x1="423.8" y1="270.1" x2="423.8" y2="443.2"/>
		<line id="allskl"  x1="9.7" y1="442.2" x2="437.3" y2="442.2"/>
		<circle id="sks1"  cx="38.8" cy="442" r="4"/>
		<circle id="sks2"  cx="127.1" cy="442" r="4"/>
		<circle id="sks3"  cx="212.9" cy="442" r="4"/>
		<circle id="sks4"  cx="313.1" cy="442" r="4"/>
		<circle id="sks5"  cx="423.8" cy="442" r="4"/>
	</g>
</g>
<g id="o99_bg">
	<path id="o_inbg" class="st87" d="M219.9,95c-67,0-121.5,54.5-121.5,121.5c0,31.9,12.4,61,32.6,82.7c0.9,0.9,1.7,1.9,2.6,2.8h0
		c0.3,0.4,0.6,0.7,1,1.1c3.9,3.2,8.9,5.2,14.4,5.2c12.5,0,22.7-10.1,22.7-22.7c0-5-1.6-9.6-4.4-13.3c-0.4-0.5-0.9-0.9-1.3-1.4
		c-1-1-1.9-2-2.9-3c-12.3-13.6-19.9-31.6-19.9-51.3c0-42.3,34.4-76.6,76.7-76.6c42.2,0,76.6,34.4,76.6,76.6c0,16-4.9,30.8-13.3,43.2
		l0.1,0.1L141,399.9c-1,0.8-1.9,1.7-2.7,2.7l-2.6,3.7c-1.8,3.3-2.9,6.9-2.9,10.9c0,12.5,10.1,22.6,22.6,22.6c3.8,0,7.4-1.1,10.6-2.7
		l4.6-3.3c0.4-0.4,0.9-0.8,1.3-1.2l120.4-118.6c29.7-22.2,49.1-57.5,49.1-97.3C341.3,149.6,286.9,95,219.9,95z"/>
	<path id="o_out" class="st88" d="M420.9,211.4c0-115.1-93.7-208.8-208.7-208.8C97,2.6,3.4,96.3,3.4,211.4
		c0,57.1,23.1,108.9,60.3,146.6c0.4,0.4,0.8,0.8,1.2,1.2c0.3,0.3,0.7,0.7,1.1,1l0.1-0.1c0.6,0.6,1.3,1.1,1.9,1.6
		c3.7,2.4,8.1,3.8,12.8,3.8c12.8,0,23.2-10.4,23.2-23.2c0-5.2-1.7-10-4.7-13.9c-0.9-1.1-1.9-2.1-3-3.1c-0.4-0.4-0.8-0.9-1.3-1.3
		c-28.2-29.2-45.6-68.9-45.6-112.6c0-89.7,73-162.7,162.7-162.7c89.7,0,162.7,73,162.7,162.7c0,38-13.2,72.8-35,100.5L192.1,457.4
		c-4.8,4.2-8,10.4-8,17.4c0,12.8,10.4,23.1,23.2,23.1c6.9,0,13-3.1,17.2-7.8L341,375.4c12.1-9.5,23-20.3,32.7-32.3l3.2-3.2l-0.4-0.4
		C404.2,304.2,420.9,259.8,420.9,211.4z"/>
	<path id="o_in" class="st89" d="M214.1,86c-68.8,0-124.7,56-124.7,124.7c0,32.8,12.7,62.6,33.5,84.9c0.9,1,1.8,1.9,2.7,2.8h0
		c0.3,0.4,0.7,0.7,1,1.1c4,3.3,9.2,5.3,14.8,5.3c12.8,0,23.3-10.4,23.3-23.3c0-5.1-1.7-9.9-4.5-13.7c-0.4-0.5-0.9-1-1.4-1.4
		c-1-1-2-2-2.9-3.1c-12.7-14-20.4-32.4-20.4-52.7c0-43.4,35.3-78.7,78.7-78.7c43.3,0,78.6,35.3,78.6,78.7c0,16.4-5,31.6-13.7,44.3
		l0.1,0.1L133.1,399c-1,0.8-1.9,1.7-2.8,2.7l-2.6,3.8c-1.8,3.3-3,7.1-3,11.2c0,12.8,10.3,23.2,23.2,23.2c3.9,0,7.6-1.1,10.9-2.8
		l4.7-3.3c0.5-0.4,0.9-0.8,1.3-1.3l123.6-121.8c30.5-22.7,50.4-59,50.4-99.9C338.8,142,282.9,86,214.1,86z"/>
</g>
<rect id="ibd_bg" x="85.5" y="34.6" transform="matrix(0.9813 0.1924 -0.1924 0.9813 52.7062 -43.432)" class="st90" width="329.1" height="430.1"/>
<path class="st91" d="M-1361.6-992.3l-815.7,592.7l311.6,959h1008.3l311.6-959L-1361.6-992.3z M-884.1,518.3H-1839l-295.1-908.2
	l772.6-561.3L-589-389.9L-884.1,518.3z"/>
<rect x="-2359.8" y="-600.8" class="st31" width="379.2" height="379.2"/>
<g>
	<g>
		<path class="st92" d="M-2170.2-228.6c-5.4,0-10.8-1.2-15-3.6l-132.6-76.6c-8.4-4.8-15-16.2-15-25.9v-153.1c0-9.7,6.6-21.1,15-25.9
			l132.6-76.6c8.4-4.8,21.5-4.8,29.9,0l132.6,76.6c8.4,4.8,15,16.2,15,25.9v153.1c0,9.7-6.6,21.1-15,25.9l-132.6,76.6
			C-2159.5-229.8-2164.8-228.6-2170.2-228.6z M-2170.2-588.6c-4.5,0-9,1-12.3,2.9l-132.6,76.6c-6.7,3.8-12.3,13.6-12.3,21.3v153.1
			c0,7.7,5.6,17.4,12.3,21.3l132.6,76.6c6.7,3.8,17.9,3.8,24.6,0l132.6-76.6c6.7-3.8,12.3-13.6,12.3-21.3v-153.1
			c0-7.7-5.6-17.4-12.3-21.3l-132.6-76.6C-2161.3-587.6-2165.8-588.6-2170.2-588.6z"/>
	</g>
</g>
<g>
	<g>
		<path class="st93" d="M-2317.6-481.8c0-8,5.7-17.8,12.6-21.8l122.2-70.6c6.9-4,18.2-4,25.1,0l122.2,70.6
			c6.9,4,12.6,13.8,12.6,21.8v141.1c0,8-5.7,17.8-12.6,21.8l-122.2,70.6c-6.9,4-18.2,4-25.1,0L-2305-319c-6.9-4-12.6-13.8-12.6-21.8
			V-481.8z"/>
	</g>
</g>
<g>
	<g>
		<path class="st94" d="M-1368.4-770.1c-5.4,0-10.8-1.2-15-3.6l-132.6-76.6c-8.4-4.8-15-16.2-15-25.9v-153.1c0-9.7,6.6-21.1,15-25.9
			l132.6-76.6c8.4-4.8,21.5-4.8,29.9,0l132.6,76.6c8.4,4.8,15,16.2,15,25.9v153.1c0,9.7-6.6,21.1-15,25.9l-132.6,76.6
			C-1357.6-771.3-1363-770.1-1368.4-770.1z M-1368.4-1130.1c-4.5,0-9,1-12.3,2.9l-132.6,76.6c-6.7,3.8-12.3,13.6-12.3,21.3v153.1
			c0,7.7,5.6,17.4,12.3,21.3l132.6,76.6c6.7,3.8,17.9,3.8,24.6,0l132.6-76.6c6.7-3.8,12.3-13.6,12.3-21.3v-153.1
			c0-7.7-5.6-17.4-12.3-21.3l-132.6-76.6C-1359.4-1129.1-1363.9-1130.1-1368.4-1130.1z"/>
	</g>
</g>
<g>
	<g>
		<path class="st95" d="M-1515.7-1023.3c0-8,5.7-17.8,12.6-21.8l122.2-70.6c6.9-4,18.2-4,25.1,0l122.2,70.6
			c6.9,4,12.6,13.8,12.6,21.8v141.1c0,8-5.7,17.8-12.6,21.8l-122.2,70.6c-6.9,4-18.2,4-25.1,0l-122.2-70.6
			c-6.9-4-12.6-13.8-12.6-21.8V-1023.3z"/>
	</g>
</g>
<g>
	<g>
		<path class="st96" d="M-586-221c-5.4,0-10.8-1.2-15-3.6l-132.6-76.6c-8.4-4.8-15-16.2-15-25.9v-153.1c0-9.7,6.6-21.1,15-25.9
			l132.6-76.6c8.4-4.8,21.5-4.8,29.9,0l132.6,76.6c8.4,4.8,15,16.2,15,25.9v153.1c0,9.7-6.6,21.1-15,25.9L-571-224.6
			C-575.2-222.2-580.6-221-586-221z M-586-581c-4.5,0-9,1-12.3,2.9l-132.6,76.6c-6.7,3.8-12.3,13.6-12.3,21.3v153.1
			c0,7.7,5.6,17.4,12.3,21.3l132.6,76.6c6.7,3.8,17.9,3.8,24.6,0l132.6-76.6c6.7-3.8,12.3-13.6,12.3-21.3v-153.1
			c0-7.7-5.6-17.4-12.3-21.3l-132.6-76.6C-577-580-581.5-581-586-581z"/>
	</g>
</g>
<g>
	<g>
		<path class="st97" d="M-733.3-474.2c0-8,5.7-17.8,12.6-21.8l122.2-70.6c6.9-4,18.2-4,25.1,0l122.2,70.6c6.9,4,12.6,13.8,12.6,21.8
			v141.1c0,8-5.7,17.8-12.6,21.8l-122.2,70.6c-6.9,4-18.2,4-25.1,0l-122.2-70.6c-6.9-4-12.6-13.8-12.6-21.8V-474.2z"/>
	</g>
</g>
<g>
	<g>
		<path class="st98" d="M-1835.9,678.1c-5.4,0-10.8-1.2-15-3.6l-132.6-76.6c-8.4-4.8-15-16.2-15-25.9V418.8c0-9.7,6.6-21.1,15-25.9
			l132.6-76.6c8.4-4.8,21.5-4.8,29.9,0l132.6,76.6c8.4,4.8,15,16.2,15,25.9V572c0,9.7-6.6,21.1-15,25.9l-132.6,76.6
			C-1825.1,676.9-1830.5,678.1-1835.9,678.1z M-1835.9,318.1c-4.5,0-9,1-12.3,2.9l-132.6,76.6c-6.7,3.8-12.3,13.6-12.3,21.3V572
			c0,7.7,5.6,17.4,12.3,21.3l132.6,76.6c6.7,3.8,17.9,3.8,24.6,0l132.6-76.6c6.7-3.8,12.3-13.6,12.3-21.3V418.8
			c0-7.7-5.6-17.4-12.3-21.3l-132.6-76.6C-1826.9,319.1-1831.4,318.1-1835.9,318.1z"/>
	</g>
</g>
<g>
	<g>
		<path class="st99" d="M-1983.2,424.8c0-8,5.7-17.8,12.6-21.8l122.2-70.6c6.9-4,18.2-4,25.1,0l122.2,70.6
			c6.9,4,12.6,13.8,12.6,21.8V566c0,8-5.7,17.8-12.6,21.8l-122.2,70.6c-6.9,4-18.2,4-25.1,0l-122.2-70.6c-6.9-4-12.6-13.8-12.6-21.8
			V424.8z"/>
	</g>
</g>
<g>
	<g>
		<path class="st100" d="M-870.4,712.8c-5.4,0-10.8-1.2-15-3.6l-132.6-76.6c-8.4-4.8-15-16.2-15-25.9V453.6c0-9.7,6.6-21.1,15-25.9
			l132.6-76.6c8.4-4.8,21.5-4.8,29.9,0l132.6,76.6c8.4,4.8,15,16.2,15,25.9v153.1c0,9.7-6.6,21.1-15,25.9l-132.6,76.6
			C-859.6,711.6-865,712.8-870.4,712.8z M-870.4,352.8c-4.5,0-9,1-12.3,2.9l-132.6,76.6c-6.7,3.8-12.3,13.6-12.3,21.3v153.1
			c0,7.7,5.6,17.4,12.3,21.3l132.6,76.6c6.7,3.8,17.9,3.8,24.6,0l132.6-76.6c6.7-3.8,12.3-13.6,12.3-21.3V453.6
			c0-7.7-5.6-17.4-12.3-21.3l-132.6-76.6C-861.4,353.8-865.9,352.8-870.4,352.8z"/>
	</g>
</g>
<g>
	<g>
		<path class="st101" d="M-1017.7,459.6c0-8,5.7-17.8,12.6-21.8l122.2-70.6c6.9-4,18.2-4,25.1,0l122.2,70.6
			c6.9,4,12.6,13.8,12.6,21.8v141.1c0,8-5.7,17.8-12.6,21.8L-857.8,693c-6.9,4-18.2,4-25.1,0l-122.2-70.6
			c-6.9-4-12.6-13.8-12.6-21.8V459.6z"/>
	</g>
</g>
<g>
	<g>
		<g>
			<path class="st98" d="M-1919.6,584.4L-1919.6,584.4c-1.6,0-3-0.6-3.9-1.7c-1-1.1-1.4-2.6-1.3-4.3l8.5-73.7
				c0.4-3.2,2.5-7.5,4.7-9.8l86.5-86.5c1.2-1.2,2.8-1.9,4.6-1.9c1.7,0,3.4,0.7,4.6,1.9l67.1,67.1c2.5,2.5,2.5,6.6,0,9.1l-86.5,86.5
				c-2.3,2.3-6.6,4.4-9.8,4.7l-73.7,8.5C-1919.1,584.4-1919.3,584.4-1919.6,584.4z M-1820.5,408.6c-1.2,0-2.2,0.4-3,1.3l-86.5,86.5
				c-1.9,1.9-3.8,5.8-4.1,8.5l-8.5,73.7c-0.1,1,0.1,1.9,0.7,2.6c0.6,0.6,1.4,1,2.3,1h0c0.2,0,0.3,0,0.5,0l73.7-8.5
				c2.7-0.3,6.6-2.2,8.5-4.1l86.5-86.5c1.7-1.7,1.7-4.4,0-6.1l-67.1-67.1C-1818.2,409.1-1819.3,408.6-1820.5,408.6z"/>
		</g>
	</g>
	<g>
		<defs>
			<path id="SVGID" d="M-1923.7,578.5c-0.3,2.9,1.8,5.1,4.7,4.7l73.7-8.5c2.9-0.3,7.1-2.3,9.2-4.4l86.5-86.5
				c2.1-2.1,2.1-5.5,0-7.6l-67.1-67.1c-2.1-2.1-5.5-2.1-7.6,0l-86.5,86.5c-2.1,2.1-4.1,6.2-4.4,9.2L-1923.7,578.5z"/>
		</defs>
		<defs>
			<path id="SVGID" d="M-1923.7,578.5c-0.3,2.9,1.8,5.1,4.7,4.7l73.7-8.5c2.9-0.3,7.1-2.3,9.2-4.4l86.5-86.5
				c2.1-2.1,2.1-5.5,0-7.6l-67.1-67.1c-2.1-2.1-5.5-2.1-7.6,0l-86.5,86.5c-2.1,2.1-4.1,6.2-4.4,9.2L-1923.7,578.5z"/>
		</defs>
		<clipPath id="SVGID">
			<use xlink:href="#SVGID"  style="overflow:visible;"/>
		</clipPath>
		<clipPath id="SVGID_4_" class="st102">
			<use xlink:href="#SVGID"  style="overflow:visible;"/>
		</clipPath>
		<g class="st103">
			<circle class="st98" cx="-1924.3" cy="583.9" r="37.8"/>
		</g>
	</g>
	<g>
		<defs>
			<path id="SVGID_5_" d="M-1923.7,578.5c-0.3,2.9,1.8,5.1,4.7,4.7l73.7-8.5c2.9-0.3,7.1-2.3,9.2-4.4l86.5-86.5
				c2.1-2.1,2.1-5.5,0-7.6l-67.1-67.1c-2.1-2.1-5.5-2.1-7.6,0l-86.5,86.5c-2.1,2.1-4.1,6.2-4.4,9.2L-1923.7,578.5z"/>
		</defs>
		<defs>
			<path id="SVGID_6_" d="M-1923.7,578.5c-0.3,2.9,1.8,5.1,4.7,4.7l73.7-8.5c2.9-0.3,7.1-2.3,9.2-4.4l86.5-86.5
				c2.1-2.1,2.1-5.5,0-7.6l-67.1-67.1c-2.1-2.1-5.5-2.1-7.6,0l-86.5,86.5c-2.1,2.1-4.1,6.2-4.4,9.2L-1923.7,578.5z"/>
		</defs>
		<clipPath id="SVGID_7_">
			<use xlink:href="#SVGID_5_"  style="overflow:visible;"/>
		</clipPath>
		<clipPath id="SVGID_8_" class="st104">
			<use xlink:href="#SVGID_6_"  style="overflow:visible;"/>
		</clipPath>
		<path class="st105" d="M-1836.9,414.4l-79.8,79.8l83.1,83.1l79.8-79.8L-1836.9,414.4z M-1790.4,480.2l-48.3,48.3l-7.9-7.9
			l48.3-48.3L-1790.4,480.2z M-1801.6,469l-48.3,48.3l-7.9-7.9l48.3-48.3L-1801.6,469z M-1812.8,457.8l-48.3,48.3l-7.9-7.9
			l48.3-48.3L-1812.8,457.8z M-1831.9,438.8l7.9,7.9l-48.3,48.3l-7.9-7.9L-1831.9,438.8z M-1890.9,497.7l7.9-7.9l7.9,7.9l-7.9,7.9
			L-1890.9,497.7z M-1879.7,508.9l7.9-7.9l7.9,7.9l-7.9,7.9L-1879.7,508.9z M-1868.5,520.1l7.9-7.9l7.9,7.9l-7.9,7.9L-1868.5,520.1z
			 M-1857.3,531.3l7.9-7.9l7.9,7.9l-7.9,7.9L-1857.3,531.3z M-1838.2,550.4l-7.9-7.9l7.9-7.9l7.9,7.9L-1838.2,550.4z M-1835.4,531.8
			l48.3-48.3l7.9,7.9l-48.3,48.3L-1835.4,531.8z"/>
	</g>
</g>
<g>
	<path class="st92" d="M-2099.2-322.2h-142.1c-4,0-6.5-1.9-6.9-4.6c-0.5,3.6,2.1,6.2,6.9,6.2h142.1c4.8,0,7.4-2.6,6.9-6.2
		C-2092.7-324-2095.1-322.2-2099.2-322.2z"/>
	<path class="st92" d="M-2099.2-328.6h-142.1c-4,0-6.5-1.9-6.9-4.6c-0.5,3.6,2.1,6.2,6.9,6.2h142.1c4.8,0,7.4-2.6,6.9-6.2
		C-2092.7-330.4-2095.1-328.6-2099.2-328.6z"/>
	<circle class="st92" cx="-2170.2" cy="-470.3" r="44.3"/>
	<path class="st92" d="M-2094.2-344.8c3.5,6,1.1,11.4-5.8,11.4h-140.5c-6.8,0-9.3-5.4-5.8-11.4l37.4-64.3c0.8-1.5,4-2.6,7.1-2.6h63
		c3.1,0,6.2,1.1,7.1,2.6L-2094.2-344.8z"/>
</g>
<g>
	<path class="st94" d="M-1375.3-957.1l-95.1-54.9c-4.2-2.4-7.6-0.4-7.6,4.4v109.9c0,4.8,3.4,6.8,7.6,4.4l95.1-54.9
		C-1371.1-950.8-1371.1-954.7-1375.3-957.1z M-1374.3-950.9l-39.9,23.1c-1.7,1-3.2,0.2-3.2-1.8v-46.1c0-2,1.4-2.8,3.2-1.8l39.9,23.1
		C-1372.6-953.6-1372.6-951.9-1374.3-950.9z"/>
	<path class="st94" d="M-1266.3-1012l-95.1,54.9c-4.2,2.4-4.2,6.3,0,8.7l95.1,54.9c4.2,2.4,7.6,0.4,7.6-4.4v-109.9
		C-1258.8-1012.5-1262.2-1014.4-1266.3-1012z M-1319.3-929.7c0,2-1.4,2.8-3.2,1.8l-39.9-23.1c-1.7-1-1.7-2.7,0-3.7l39.9-23.1
		c1.7-1,3.2-0.2,3.2,1.8V-929.7z"/>
</g>
<g>
	<path class="st96" d="M-499.3-320.9h-173.4c-4.9,0-8-2.3-8.4-5.7c-0.6,4.4,2.6,7.6,8.4,7.6h173.4c5.8,0,9-3.2,8.4-7.6
		C-491.3-323.2-494.3-320.9-499.3-320.9z"/>
	<path class="st96" d="M-499.3-328.8h-173.4c-4.9,0-8-2.3-8.4-5.7c-0.6,4.4,2.6,7.6,8.4,7.6h173.4c5.8,0,9-3.2,8.4-7.6
		C-491.3-331-494.3-328.8-499.3-328.8z"/>
	<path class="st96" d="M-492.4-346.6l-86.7-150.2c-3.8-6.6-10-6.6-13.8,0l-86.7,150.2c-3.8,6.6-0.7,11.9,6.9,11.9h173.4
		C-491.7-334.6-488.6-340-492.4-346.6z M-549.6-430.2h-72.8c-3.2,0-4.5-2.3-2.9-5l36.4-63c1.6-2.8,4.2-2.8,5.8,0l36.4,63
		C-545.1-432.5-546.4-430.2-549.6-430.2z"/>
</g>
<g>
	<path id="XMLID_5_" class="st100" d="M-874.2,573.3L-874.2,573.3c1.5,1.3,2.9,2.7,4.1,4.3c1.2-1.5,2.6-3,4.1-4.3
		c2.6-2.1,4.2-5.3,4.2-8.8c0-4.8-3-8.9-7.2-10.6c-0.1,0-0.2-0.1-0.3-0.1c-0.3-0.1-0.6-0.2-0.9-0.2s-0.6,0.1-0.9,0.2
		c-0.1,0-0.2,0.1-0.3,0.1c-4.2,1.7-7.2,5.8-7.2,10.6C-878.3,568-876.7,571.2-874.2,573.3z"/>
	<path id="XMLID_4_" class="st100" d="M-845.2,571.6l-25.2,24.9l0,0l1.2-1.2c-0.7,0.6-1.7,0.6-2.4,0l-8.9-8.8l0,0l-15.1-14.9
		c-0.7-0.6-1.7-0.6-2.4,0l-13.9,13.7c-0.7,0.6-0.7,1.7,0,2.3l40.3,39.8l0,0l0,0c0.7,0.6,1.7,0.6,2.4,0l-1.2,1.2v0l0,0v0l26.4-26
		l16.3-16.1l0,0l-1.2,1.2c0.7-0.6,0.7-1.7,0-2.3l0,0l-13.9-13.7l0,0C-843.5,570.9-844.5,570.9-845.2,571.6z"/>
	<path id="XMLID" class="st100" d="M-895.6,488.7l25.2-24.9l0,0l-1.2,1.2c0.7-0.6,1.7-0.6,2.4,0l8.9,8.8v0l15.1,14.9
		c0.7,0.6,1.7,0.6,2.4,0l13.9-13.7c0.7-0.6,0.7-1.7,0-2.3l-40.3-39.8l0,0l0,0c-0.7-0.6-1.7-0.6-2.4,0l1.2-1.2v0l0,0l0,0l-26.4,26
		l-16.3,16.1l0,0l1.2-1.2c-0.7,0.6-0.7,1.7,0,2.3l0,0l13.9,13.7l0,0C-897.3,489.3-896.2,489.3-895.6,488.7z"/>
	<g>
		<path id="XMLID" class="st100" d="M-912.4,555l-25.2-24.9l0,0l1.2,1.2c-0.7-0.6-0.7-1.7,0-2.3l8.9-8.8l0,0l15.1-14.9
			c0.7-0.6,0.7-1.7,0-2.3l-13.9-13.7c-0.7-0.6-1.7-0.6-2.4,0L-969,529l0,0l0,0c-0.7,0.6-0.7,1.7,0,2.3l-1.2-1.2l0,0l0,0l0,0l26.4,26
			l16.3,16.1l0,0l-1.2-1.2c0.7,0.6,1.7,0.6,2.4,0l0,0l13.9-13.7l0,0C-911.7,556.7-911.7,555.6-912.4,555z"/>
		<path id="XMLID" class="st100" d="M-828.4,505.3l25.2,24.9l0,0l-1.2-1.2c0.7,0.6,0.7,1.7,0,2.3l-8.9,8.8l0,0l-15.1,14.9
			c-0.7,0.6-0.7,1.7,0,2.3l13.9,13.7c0.7,0.6,1.7,0.6,2.4,0l40.3-39.8l0,0l0,0c0.7-0.6,0.7-1.7,0-2.3l1.2,1.2l0,0l0,0l0,0l-26.4-26
			l-16.3-16.1l0,0l1.2,1.2c-0.7-0.6-1.7-0.6-2.4,0l0,0l-13.9,13.7l0,0C-829,503.6-829,504.6-828.4,505.3z"/>
	</g>
	<path class="st100" d="M-877.8,547c0-4.8,0.6-8.7,1.8-11.6c1.2-2.9,3.4-5.7,6.5-8.5c3.2-2.8,5.3-5,6.3-6.8c1-1.7,1.6-3.6,1.6-5.5
		c0-5.8-2.7-8.8-8.2-8.8c-2.6,0-4.7,0.8-6.2,2.4c-1.6,1.6-2.4,3.7-2.4,6.5h-15.2c0.1-6.6,2.2-11.8,6.5-15.5c4.2-3.7,10-5.6,17.4-5.6
		c7.4,0,13.2,1.8,17.3,5.3c4.1,3.5,6.1,8.5,6.1,15c0,2.9-0.7,5.7-2,8.3c-1.3,2.6-3.7,5.5-7,8.7l-4.2,4c-2.7,2.5-4.2,5.5-4.6,8.9
		l-0.2,3.2H-877.8z"/>
</g>
<rect x="-1557.9" y="-1142.3" class="st31" width="379.2" height="379.2"/>
<rect x="-775.5" y="-593.2" class="st31" width="379.2" height="379.2"/>
<rect x="-2025.4" y="305.8" class="st31" width="379.2" height="379.2"/>
<rect x="-1060" y="340.6" class="st31" width="379.2" height="379.2"/>
<g id="car">
</g>
<g id="clouds">
	<path id="cl_a1" class="st106" d="M279.5,99.6h-11.1c0-5.6-4.5-10.1-10.1-10.1c-0.9,0-1.7,0.1-2.5,0.3
		c-2.5-5.5-8.1-9.4-14.6-9.4c-7.9,0-14.5,5.7-15.8,13.2c-0.4-0.1-0.8-0.1-1.3-0.1c-4.1,0-7.7,2.5-9.2,6H206"/>
	<path id="cl_c4" class="st106" d="M131.7,29.7h-5.3c0-2.7-2.2-4.8-4.8-4.8c-0.4,0-0.8,0.1-1.2,0.2c-1.2-2.7-3.9-4.5-7-4.5
		c-3.8,0-6.9,2.7-7.6,6.3c-0.2,0-0.4-0.1-0.6-0.1c-2,0-3.7,1.2-4.4,2.9h-4.3"/>
	<path id="cl_c3" class="st106" d="M105.1,99.2h-5.3c0-2.7-2.2-4.8-4.8-4.8c-0.4,0-0.8,0.1-1.2,0.2c-1.2-2.7-3.9-4.5-7-4.5
		c-3.8,0-6.9,2.7-7.6,6.3c-0.2,0-0.4-0.1-0.6-0.1c-2,0-3.7,1.2-4.4,2.9H70"/>
	<path id="cl_c5" class="st106" d="M221.6,53.7h-5.3c0-2.7-2.2-4.8-4.8-4.8c-0.4,0-0.8,0.1-1.2,0.2c-1.2-2.7-3.9-4.5-7-4.5
		c-3.8,0-6.9,2.7-7.6,6.3c-0.2,0-0.4-0.1-0.6-0.1c-2,0-3.7,1.2-4.4,2.9h-4.3"/>
	<path id="cl_c2" class="st106" d="M429.6,40.3h-5.3c0-2.7-2.2-4.8-4.8-4.8c-0.4,0-0.8,0.1-1.2,0.2c-1.2-2.7-3.9-4.5-7-4.5
		c-3.8,0-6.9,2.7-7.6,6.3c-0.2,0-0.4-0.1-0.6-0.1c-2,0-3.7,1.2-4.4,2.9h-4.3"/>
	<path id="cl_c1" class="st106" d="M354.3,81.7H349c0-2.7-2.2-4.8-4.8-4.8c-0.4,0-0.8,0.1-1.2,0.2c-1.2-2.7-3.9-4.5-7-4.5
		c-3.8,0-6.9,2.7-7.6,6.3c-0.2,0-0.4-0.1-0.6-0.1c-2,0-3.7,1.2-4.4,2.9h-4.3"/>
	<path id="cl_b1" class="st106" d="M272.1,26.7h6.9c0-3.5,2.8-6.3,6.3-6.3c0.5,0,1.1,0.1,1.6,0.2c1.6-3.5,5.1-5.9,9.2-5.9
		c4.9,0,9.1,3.6,9.9,8.3c0.3,0,0.5-0.1,0.8-0.1c2.6,0,4.8,1.6,5.8,3.8h5.6"/>
	<path id="cl_b2" class="st106" d="M31,77.2H38c0-3.5,2.8-6.3,6.3-6.3c0.5,0,1.1,0.1,1.6,0.2c1.6-3.5,5.1-5.9,9.2-5.9
		c4.9,0,9.1,3.6,9.9,8.3c0.3,0,0.5-0.1,0.8-0.1c2.6,0,4.8,1.6,5.8,3.8H77"/>
	<path id="cl_b3" class="st106" d="M430.3,78.3h6.9c0-3.5,2.8-6.3,6.3-6.3c0.5,0,1.1,0.1,1.6,0.2c1.6-3.5,5.1-5.9,9.2-5.9
		c4.9,0,9.1,3.6,9.9,8.3c0.3,0,0.5-0.1,0.8-0.1c2.6,0,4.8,1.6,5.8,3.8h5.6"/>
</g>
</svg>
